<?xml version="1.0" standalone="no"?>
<!DOCTYPE svg PUBLIC "-//W3C//DTD SVG 1.1//EN" "http://www.w3.org/Graphics/SVG/1.1/DTD/svg11.dtd">
<svg xmlns="http://www.w3.org/2000/svg">
<metadata>Copyright (C) 2017 by original authors @ fontello.com</metadata>
<defs>
<font id="salesforce-icons-standard" horiz-adv-x="1000" >
<font-face font-family="salesforce-icons-standard" font-weight="400" font-stretch="normal" units-per-em="1000" ascent="850" descent="-150" />
<missing-glyph horiz-adv-x="1000" />
<glyph glyph-name="account" unicode="&#xe800;" d="M790 339c1 21-14 27-20 27h-218c-19 0-22-20-22-22v-234h260v229z m-150-168c0-11-9-20-20-20h-20c-11 0-20 9-20 20v20c0 11 9 20 20 20h20c11 0 20-9 20-20v-20z m0 102c0-11-9-20-20-20h-20c-11 0-20 9-20 20v20c0 11 9 20 20 20h20c11 0 20-9 20-20v-20z m100-102c0-11-9-20-20-20h-20c-11 0-20 9-20 20v20c0 11 9 20 20 20h20c11 0 20-9 20-20v-20z m0 102c0-11-9-20-20-20h-20c-11 0-20 9-20 20v20c0 11 9 20 20 20h20c11 0 20-9 20-20v-20z m-150 174v116c1 21-14 27-20 27h-338c-19 0-22-20-22-22v-458h260v293s0 24 22 24h79s19 12 19 20z m-270-266c0-11-9-20-20-20h-20c-11 0-20 9-20 20v20c0 11 9 20 20 20h20c11 0 20-9 20-20v-20z m0 103c0-11-9-20-20-20h-20c-11 0-20 9-20 20v20c0 11 9 20 20 20h20c11 0 20-9 20-20v-20z m0 102c0-11-9-20-20-20h-20c-11 0-20 9-20 20v20c0 11 9 20 20 20h20c11 0 20-9 20-20v-20z m0 102c0-11-9-20-20-20h-20c-11 0-20 9-20 20v20c0 11 9 20 20 20h20c11 0 20-9 20-20v-20z m110-307c0-11-9-20-20-20h-20c-11 0-20 9-20 20v20c0 11 9 20 20 20h20c11 0 20-9 20-20v-20z m0 103c0-11-9-20-20-20h-20c-11 0-20 9-20 20v20c0 11 9 20 20 20h20c11 0 20-9 20-20v-20z m0 102c0-11-9-20-20-20h-20c-11 0-20 9-20 20v20c0 11 9 20 20 20h20c11 0 20-9 20-20v-20z m0 102c0-11-9-20-20-20h-20c-11 0-20 9-20 20v20c0 11 9 20 20 20h20c11 0 20-9 20-20v-20z m110 0c0-11-9-20-20-20h-20c-11 0-20 9-20 20v20c0 11 9 20 20 20h20c11 0 20-9 20-20v-20z" horiz-adv-x="1000" />

<glyph glyph-name="address" unicode="&#xe801;" d="M490 661a237 237 0 0 1-237-239c0-165 170-316 222-356a25 25 0 0 1 31 0c53 42 221 191 221 356a237 237 0 0 1-237 239z m0-337a100 100 0 1 0 100 100 100 100 0 0 0-100-100z" horiz-adv-x="1000" />

<glyph glyph-name="announcement" unicode="&#xe802;" d="M460 107l-16 13c-18 12-18 37-18 50v36c0 10-9 19-19 19h-75c-10 0-19-9-19-19v-96c0-34 20-60 51-60h62c36 0 39 25 39 25s6 22-5 32z m280 342v171c0 30-38 39-58 19l-112-105c-18-15-40-21-63-21h-190c-66-1-117-57-117-122v-2c0-65 51-114 117-114h191c24 0 46-10 64-25l110-107c20-20 58-12 58 17v170c38 0 60 26 60 60 0 33-23 59-60 59z" horiz-adv-x="1000" />

<glyph glyph-name="answer_best" unicode="&#xe803;" d="M495 635c-166 0-300-125-300-280 0-50 14-96 38-137 3-5 4-11 2-16l-28-89c-5-16 10-30 26-25l88 31c6 2 12 1 17-2 46-27 100-42 158-42 166 0 300 125 300 280-1 155-135 280-301 280z m144-218l-153-153c-6-6-13-9-21-9s-15 3-21 9l-74 74c-6 6-6 15 0 21l21 21c6 6 15 6 21 0l53-53 132 132c6 6 15 6 21 0l21-21c6-6 6-16 0-21z m361-567v380l-380-380h380z m-42 135l-31-32c-1-1-1-2-1-3l7-45c1-3-3-6-5-4l-38 21c-1 1-2 1-3 0l-40-21c-3-1-6 1-5 4l7 45c0 1 0 3-1 3l-31 32c-2 3-1 6 2 7l43 7c1 0 2 1 3 2l19 41c1 3 5 3 7 0l19-41c1-1 2-2 3-2l43-7c4 0 4-4 2-7z" horiz-adv-x="1000" />

<glyph glyph-name="answer_private" unicode="&#xe804;" d="M890 10c-11 0-20-9-20-20v-10h40v10c0 11-9 20-20 20z m110-160v380l-380-380h380z m-50 65c0-8-7-15-15-15h-90c-8 0-15 7-15 15v50c0 8 7 15 15 15h5v10c0 22 18 40 40 40s40-18 40-40v-10h5c8 0 15-7 15-15v-50z m-451 715c-166 0-300-125-300-280 0-50 14-96 38-137 3-5 4-11 2-16l-28-89c-5-16 10-30 26-25l88 31c6 2 12 1 17-2 46-27 100-42 158-42 166 0 300 125 300 280-1 155-134 280-301 280z m145-218l-153-153c-6-6-13-9-21-9s-15 3-21 9l-74 74c-6 6-6 15 0 21l21 21c6 6 15 6 21 0l53-53 132 132c6 6 15 6 21 0l21-21c5-6 5-16 0-21z" horiz-adv-x="1000" />

<glyph glyph-name="answer_public" unicode="&#xe805;" d="M500 630c-166 0-300-125-300-280 0-50 14-96 38-137 3-5 4-11 2-16l-28-89c-5-16 10-30 26-25l88 31c6 2 12 1 17-2 46-27 100-42 158-42 166 0 300 125 300 280-1 155-135 280-301 280z m144-218l-153-153c-6-6-13-9-21-9s-15 3-21 9l-74 74c-6 6-6 15 0 21l21 21c6 6 15 6 21 0l53-53 132 132c6 6 15 6 21 0l21-21c6-6 6-16 0-21z" horiz-adv-x="1000" />

<glyph glyph-name="approval" unicode="&#xe806;" d="M740 310h-110c-33 0-60 27-60 60 5 89 46 94 50 151 4 60-34 114-93 127-78 16-147-43-147-118 0-66 45-66 50-160 0-33-27-60-60-60h-110c-33 0-60-27-60-60v-40c0-11 9-20 20-20h560c11 0 20 9 20 20v40c0 33-27 60-60 60z m1-180h-482c-11 0-19-9-19-19v-1c0-33 27-60 60-60h401c33 0 59 27 59 60v1c0 10-9 19-19 19z" horiz-adv-x="1000" />

<glyph glyph-name="apps_admin" unicode="&#xe807;" d="M730 640h-460c-33 0-60-27-60-60v-460c0-33 27-60 60-60h460c33 0 60 27 60 60v460c0 33-27 60-60 60z m-20-520h-420c-11 0-20 9-20 20v420c0 11 9 20 20 20h420c11 0 20-9 20-20v-420c0-11-9-20-20-20z m-260 400h-100c-11 0-20-9-20-20v-100c0-11 9-20 20-20h100c11 0 20 9 20 20v100c0 11-9 20-20 20z m200 0h-100c-11 0-20-9-20-20v-100c0-11 9-20 20-20h100c11 0 20 9 20 20v100c0 11-9 20-20 20z m-200-200h-100c-11 0-20-9-20-20v-100c0-11 9-20 20-20h100c11 0 20 9 20 20v100c0 11-9 20-20 20z m200 0h-100c-11 0-20-9-20-20v-100c0-11 9-20 20-20h100c11 0 20 9 20 20v100c0 11-9 20-20 20z" horiz-adv-x="1000" />

<glyph glyph-name="apps" unicode="&#xe808;" d="M320 650h-80c-22 0-40-18-40-40v-80c0-22 18-40 40-40h80c22 0 40 18 40 40v80c0 22-18 40-40 40z m220 0h-80c-22 0-40-18-40-40v-80c0-22 18-40 40-40h80c22 0 40 18 40 40v80c0 22-18 40-40 40z m220 0h-80c-22 0-40-18-40-40v-80c0-22 18-40 40-40h80c22 0 40 18 40 40v80c0 22-18 40-40 40z m-440-220h-80c-22 0-40-18-40-40v-80c0-22 18-40 40-40h80c22 0 40 18 40 40v80c0 22-18 40-40 40z m220 0h-80c-22 0-40-18-40-40v-80c0-22 18-40 40-40h80c22 0 40 18 40 40v80c0 22-18 40-40 40z m220 0h-80c-22 0-40-18-40-40v-80c0-22 18-40 40-40h80c22 0 40 18 40 40v80c0 22-18 40-40 40z m-440-220h-80c-22 0-40-18-40-40v-80c0-22 18-40 40-40h80c22 0 40 18 40 40v80c0 22-18 40-40 40z m220 0h-80c-22 0-40-18-40-40v-80c0-22 18-40 40-40h80c22 0 40 18 40 40v80c0 22-18 40-40 40z m220 0h-80c-22 0-40-18-40-40v-80c0-22 18-40 40-40h80c22 0 40 18 40 40v80c0 22-18 40-40 40z" horiz-adv-x="1000" />

<glyph glyph-name="article" unicode="&#xe809;" d="M320 260h130c11 0 20 9 20 20v300c0 22-20 40-40 40h-107c-13 0-23-10-23-23v-317c0-11 9-20 20-20z m440 300v-320c0-22-18-40-40-40h-440c-22 0-40 18-40 40v320c-33 0-60-27-60-60v-300c0-33 27-60 60-60h190c11 0 20-9 20-20s9-20 20-20h60c11 0 20 9 20 20s9 20 20 20h190c33 0 60 27 60 60v300c0 33-27 60-60 60z m-210-300h127c13 0 23 10 23 23v317c0 11-9 20-20 20h-110c-20 0-40-18-40-40v-300c0-11 9-20 20-20z" horiz-adv-x="1000" />

<glyph glyph-name="assigned_resource" unicode="&#xe80a;" d="M499 650a254 254 0 1 1 252-255c0 138-112 255-252 255z m165-232l-105-102c-7-7-17-1-17 12v60c-76 0-127-52-127-128h-76a201 201 0 0 0 203 204v62c0 13 11 19 17 12l106-103a15 15 0 0 0 0-17z m-404-210h-13a48 48 0 0 1-47-48v-63a47 47 0 0 1 47-47h506a48 48 0 0 1 47 47v63a47 47 0 0 1-47 48h-16a301 301 0 0 0-477 0z" horiz-adv-x="1000" />

<glyph glyph-name="avatar_loading" unicode="&#xe80b;" d="M800 138v-28c0-33-27-60-60-60h-480c-33 0-60 27-60 60v28c0 73 85 117 165 152 3 1 5 2 8 4 6 3 13 3 19-1 32-21 69-33 108-33s76 12 108 32c6 4 13 4 19 1 3-1 5-2 8-4 80-34 165-78 165-151z" horiz-adv-x="1000" />

<glyph glyph-name="avatar" unicode="&#xe80c;" d="M800 138v-28c0-33-27-60-60-60h-480c-33 0-60 27-60 60v28c0 73 85 117 165 152 3 1 5 2 8 4 6 3 13 3 19-1 32-21 69-33 108-33 39 0 76 12 108 32 6 4 13 4 19 1 3-1 5-2 8-4 80-34 165-78 165-151z" horiz-adv-x="1000" />

<glyph glyph-name="calibration" unicode="&#xe80d;" d="M319 353c-6-1-12-1-19-1-6 0-12 0-19 1-6 1-11-4-11-10v-273c0-11 9-20 20-20h20c11 0 20 9 20 20v273c0 7-5 11-11 10z m200-210c-6-1-12-1-19-1-6 0-12 0-19 1-6 1-11-4-11-10v-63c0-11 9-20 20-20h20c11 0 20 9 20 20v63c0 7-5 11-11 10z m200 150c-6-1-12-1-19-1-6 0-12 0-19 1-6 1-11-4-11-10v-213c0-11 9-20 20-20h20c11 0 20 9 20 20v213c0 7-5 11-11 10z m-389 250v87c0 11-9 20-20 20h-20c-11 0-20-9-20-20v-87c-24-11-40-35-40-63 0-39 31-70 70-70s70 31 70 70c0 28-16 52-40 63z m200-210v297c0 11-9 20-20 20h-20c-11 0-20-9-20-20v-297c-24-11-40-35-40-63 0-39 31-70 70-70s70 31 70 70c0 28-16 52-40 63z m200 150v147c0 11-9 20-20 20h-20c-11 0-20-9-20-20v-147c-24-11-40-35-40-63 0-39 31-70 70-70s70 31 70 70c0 28-16 52-40 63z" horiz-adv-x="1000" />

<glyph glyph-name="call_history" unicode="&#xe80e;" d="M281 370c-1-7-1-13-1-20h-60c0 7 0 13 1 20h60z m219 260c-148 0-269-115-279-260 0-3-1-7-1-10h-45c-13 0-20-15-12-24l75-91c6-7 17-7 23 0l75 91c8 10 1 24-12 24h-44v10c10 112 105 200 219 200 130 0 233-113 219-245-10-95-100-185-196-194-71-7-138 19-185 70-6 7-14 11-22 1l-24-29c-5-6-1-10 4-15 54-57 128-89 208-88 144 2 265 116 275 260 13 163-117 300-278 300z m-28-208c7 9 7 22-1 32l-21 26c-10 12-28 13-39 2l-24-24c-5-5-8-12-8-20 3-55 28-108 65-144s89-62 144-65c7 0 15 2 20 8l24 24c11 11 10 29-2 39l-27 21c-9 7-22 8-32 1l-26-19c-3-3-8-2-11 1l-42 38-38 42c-3 3-3 8-1 11l19 27z" horiz-adv-x="1000" />

<glyph glyph-name="call" unicode="&#xe80f;" d="M777 211l-62 50c-21 17-51 18-73 2l-59-43c-8-6-19-5-26 2l-97 88-89 98c-7 7-8 18-2 26l43 59c16 22 15 52-2 73l-50 62c-22 28-64 30-89 5l-54-54c-12-12-18-29-18-45 7-127 65-248 150-333s205-143 333-150c17-1 33 6 45 18l54 54c27 24 24 66-4 88z" horiz-adv-x="1000" />

<glyph glyph-name="campaign_members" unicode="&#xe810;" d="M1000 230v-380h-380l380 380z m-78-276c-13 5-15 10-15 16 0 5 4 10 8 14 8 7 12 16 12 27 0 21-13 38-37 38s-37-18-37-38c0-11 4-21 12-27 4-4 8-9 8-14s-2-10-15-16c-19-8-38-17-38-34 0-11 9-21 20-21h100c11 0 20 10 20 21 0 18-19 27-38 34z m-422 696c-165 0-300-135-300-300s135-300 300-300 300 135 300 300-135 300-300 300z m0-540c-132 0-240 108-240 240s108 240 240 240 240-108 240-240-108-240-240-240z m0 420c-99 0-180-81-180-180s81-180 180-180 180 81 180 180-81 180-180 180z m0-300c-66 0-120 54-120 120s54 120 120 120 120-54 120-120-54-120-120-120z m0 180c-33 0-60-27-60-60s27-60 60-60 60 27 60 60-27 60-60 60z" horiz-adv-x="1000" />

<glyph glyph-name="campaign" unicode="&#xe811;" d="M500 650c-165 0-300-135-300-300s135-300 300-300 300 135 300 300-135 300-300 300z m0-540c-132 0-240 108-240 240s108 240 240 240 240-108 240-240-108-240-240-240z m0 420c-99 0-180-81-180-180s81-180 180-180 180 81 180 180-81 180-180 180z m0-300c-66 0-120 54-120 120s54 120 120 120 120-54 120-120-54-120-120-120z m0 180c-33 0-60-27-60-60s27-60 60-60 60 27 60 60-27 60-60 60z" horiz-adv-x="1000" />

<glyph glyph-name="canvas" unicode="&#xe812;" d="M739 191c-2-34-6-71-12-106-2-11-12-21-23-22-68-9-136-13-204-13-67 0-135 4-202 13-11 1-21 12-23 22-10 56-15 113-15 169 0 57 5 114 14 169 2 11 12 21 23 23 41 5 82 8 122 10 0 0 33 2 31 32-2 28-50 46-50 94 0 38 38 68 99 68 61 0 99-31 99-68 0-47-47-66-49-94-2-31 30-32 30-32 41-2 83-5 124-10 11-2 21-12 23-23 7-39 11-74 13-112 1-11-9-20-21-20-4 0-7 1-11 1-12 0-29 7-37 16 0 0-27 27-55 27-46 1-82-41-82-85s35-86 81-85c28 1 55 29 55 29 9 8 25 16 37 16 4 1 7 1 11 1 14-1 23-10 22-20z" horiz-adv-x="1000" />

<glyph glyph-name="carousel" unicode="&#xe813;" d="M763 473h-27v-269h27a38 38 0 0 1 37 37v195a38 38 0 0 1-37 37z m-563-37v-195a38 38 0 0 1 37-37h27v269h-27a38 38 0 0 1-37-37z m465 71h-330a38 38 0 0 1-37-38v-262a38 38 0 0 1 37-37h330a38 38 0 0 1 37 37v262a38 38 0 0 1-37 38z m-56-270h-231a12 12 0 0 0-10 19l70 121a8 8 0 0 0 13 0l43-72a8 8 0 0 1 13-1l34 50a8 8 0 0 0 14 0l63-100a10 10 0 0 0-9-17z m-6 144a32 32 0 1 0 32 32 32 32 0 0 0-32-32z" horiz-adv-x="1000" />

<glyph glyph-name="case_change_status" unicode="&#xe814;" d="M380 550h40c6 0 10 4 10 10v30h140v-30c0-6 4-10 10-10h40c6 0 10 4 10 10v30c0 33-27 60-60 60h-140c-33 0-60-27-60-60v-30c0-6 4-10 10-10z m360-60h-480c-33 0-60-27-60-60v-320c0-33 27-60 60-60h480c33 0 60 27 60 60v320c0 33-27 60-60 60z m-155-221l-105-126c-6-6-16-1-14 7l26 90h-69c-8 0-14 8-11 16l42 108c4 9 12 15 22 15h83c9 0 15-9 10-17l-45-72h52c10 0 16-13 9-21z" horiz-adv-x="1000" />

<glyph glyph-name="case_comment" unicode="&#xe815;" d="M380 550h40c6 0 10 4 10 10v30h140v-30c0-6 4-10 10-10h40c6 0 10 4 10 10v30c0 33-27 60-60 60h-140c-33 0-60-27-60-60v-30c0-6 4-10 10-10z m360-60h-480c-33 0-60-27-60-60v-320c0-33 27-60 60-60h480c33 0 60 27 60 60v320c0 33-27 60-60 60z m-231-320c-23 0-44 6-62 16-2 1-4 1-7 1l-40-17c-6-2-12 4-10 10l17 41c1 2 0 5-1 6-10 16-15 34-15 54 0 61 53 110 118 110s118-49 118-110c0-62-53-111-118-111z" horiz-adv-x="1000" />

<glyph glyph-name="case_email" unicode="&#xe816;" d="M380 550h40c6 0 10 4 10 10v30h140v-30c0-6 4-10 10-10h40c6 0 10 4 10 10v30c0 33-27 60-60 60h-140c-33 0-60-27-60-60v-30c0-6 4-10 10-10z m360-60h-480c-33 0-60-27-60-60v-320c0-33 27-60 60-60h480c33 0 60 27 60 60v320c0 33-27 60-60 60z m-361-111h243c8 0 9-7 7-11l-123-114c-3-3-8-3-12 0l-122 113c-5 6 0 12 7 12z m251-169c0-14-16-30-30-30h-200c-14 0-30 16-30 30v109c0 6 7 9 11 5l96-89c6-6 15-9 23-9s17 3 23 9l95 89c4 4 11 2 11-3 1-9 1-108 1-111z" horiz-adv-x="1000" />

<glyph glyph-name="case_log_a_call" unicode="&#xe817;" d="M380 550h40c6 0 10 4 10 10v30h140v-30c0-6 4-10 10-10h40c6 0 10 4 10 10v30c0 33-27 60-60 60h-140c-33 0-60-27-60-60v-30c0-6 4-10 10-10z m360-60h-480c-33 0-60-27-60-60v-320c0-33 27-60 60-60h480c33 0 60 27 60 60v320c0 33-27 60-60 60z m-117-301l-22-22c-5-5-11-7-18-7-51 3-99 26-133 60-34 34-57 82-60 133 0 7 2 13 7 18l22 22c10 10 27 9 36-2l20-25c7-8 7-20 1-29l-17-24c-2-3-2-8 1-10l35-39 39-35c3-3 7-3 10-1l24 17c9 6 21 6 29-1l25-20c10-8 11-25 1-35z" horiz-adv-x="1000" />

<glyph glyph-name="case_transcript" unicode="&#xe818;" d="M380 550h40c6 0 10 4 10 10v30h140v-30c0-6 4-10 10-10h40c6 0 10 4 10 10v30c0 33-27 60-60 60h-140c-33 0-60-27-60-60v-30c0-6 4-10 10-10z m360-60h-480c-33 0-60-27-60-60v-320c0-33 27-60 60-60h480c33 0 60 27 60 60v320c0 33-27 60-60 60z m-130-310c0-17-13-30-30-30h-140c-17 0-30 13-30 30v190c0 17 13 30 30 30h70c6 0 10-4 10-10v-60c0-11 9-20 20-20h60c6 0 10-4 10-10v-120z m0 157c0-4-3-7-7-7h-43c-11 0-20 9-20 20v43c0 4 3 7 7 7 2 0 4-1 5-2l56-56c1-1 2-3 2-5z" horiz-adv-x="1000" />

<glyph glyph-name="case" unicode="&#xe819;" d="M380 560h40c6 0 10 4 10 10v30h140v-30c0-6 4-10 10-10h40c6 0 10 4 10 10v30c0 33-27 60-60 60h-140c-33 0-60-27-60-60v-30c0-6 4-10 10-10z m360-60h-480c-33 0-60-27-60-60v-320c0-33 27-60 60-60h480c33 0 60 27 60 60v320c0 33-27 60-60 60z" horiz-adv-x="1000" />

<glyph glyph-name="client" unicode="&#xe81a;" d="M448 267c37 21 72 31 111 31 11 0 22-1 32-2 5-1 6 1 1 4-19 11-40 21-62 30-43 18-49 34-49 52 0 18 12 34 26 47 25 23 39 54 39 91 0 69-43 128-119 128-76 0-119-59-119-128 0-37 14-69 39-91 14-13 26-30 26-47 0-17-7-34-49-52-62-26-121-56-122-112 0-37 28-70 63-70h142c11 0 20 9 20 20v65c1 14 8 27 21 34z m325-59c-94-29-168 60-271 18-8-3-12-10-12-19v-107c0-14 12-23 25-19 102 31 176-58 272-18 7 3 13 10 13 19v107c0 13-14 23-27 19z m-125-100c-22 0-40 18-40 40s18 40 40 40 40-18 40-40-18-40-40-40z" horiz-adv-x="1000" />

<glyph glyph-name="coaching" unicode="&#xe81b;" d="M470 320c-13 0-26-5-35-15-19-19-19-51 0-71 9-9 22-15 35-15 13 0 26 5 35 15 19 19 19 51 0 71-9 10-22 15-35 15z m326 224l-68 98c-6 9-18 11-27 6l-334-207c-32-19-60-47-78-89-18-43-22-89-11-132-43-4-78-40-78-85 0-47 38-85 85-85 35 0 65 21 78 51 77-49 181-40 249 28 61 61 74 152 40 227-12 26-5 58 19 75l121 86c8 5 10 18 4 27z m-511-434c-14 0-25 11-25 25s11 25 25 25 25-11 25-25-11-25-25-25z m263 82c-21-21-49-32-78-32-29 0-57 11-78 32-43 43-43 113 0 156 21 21 48 32 78 32 29 0 57-11 78-32 43-43 43-113 0-156z" horiz-adv-x="1000" />

<glyph glyph-name="connected_apps" unicode="&#xe81c;" d="M730 640h-460c-33 0-60-27-60-60v-460c0-33 27-60 60-60h460c33 0 60 27 60 60v460c0 33-27 60-60 60z m-20-520h-420c-11 0-20 9-20 20v420c0 11 9 20 20 20h420c11 0 20-9 20-20v-420c0-11-9-20-20-20z m-125 260h-65l57 94c6 10-1 26-13 26h-83c-12 0-23-8-28-19l-52-138c-4-10 3-23 14-23h66l-32-109c-3-10 10-16 17-8l131 154c8 10 1 23-12 23z" horiz-adv-x="1000" />

<glyph glyph-name="contact" unicode="&#xe81d;" d="M740 560h-480c-33 0-60-27-60-60v-290c0-33 27-60 60-60h480c33 0 60 27 60 60v290c0 33-27 60-60 60z m-254-340h-172c-19 0-34 21-34 41 1 30 32 48 65 63 23 10 26 19 26 29s-6 19-14 26c-13 12-21 30-21 50 0 38 23 70 63 70s63-32 63-70c0-20-7-38-21-50-8-7-14-16-14-26s3-19 26-28c33-14 64-34 65-64 2-20-13-41-32-41z m234 70c0-11-9-20-20-20h-90c-11 0-20 9-20 20v30c0 11 9 20 20 20h90c11 0 20-9 20-20v-30z m0 110c0-11-9-20-20-20h-150c-11 0-20 9-20 20v30c0 11 9 20 20 20h150c11 0 20-9 20-20v-30z" horiz-adv-x="1000" />

<glyph glyph-name="contract" unicode="&#xe81e;" d="M746 514l-132 132c-3 3-6 4-10 4-8 0-14-6-14-14v-106c0-22 18-40 40-40h106c8 0 14 6 14 14 0 4-1 7-4 10z m-16-84h-140c-33 0-60 27-60 60v140c0 11-9 20-20 20h-200c-33 0-60-27-60-60v-480c0-33 27-60 60-60h380c33 0 60 27 60 60v300c0 11-9 20-20 20z m-410 94l49 7c1 0 3 1 3 2l22 45c2 3 6 3 8 0l22-45c1-1 2-2 3-2l49-7c3-1 5-5 2-7l-36-35c-1-1-1-2-1-4l8-49c1-3-3-6-6-4l-44 23c-1 1-3 1-4 0l-44-23c-3-2-7 1-6 4l8 49c0 1 0 3-1 4l-36 35c-1 2 1 6 4 7z m310-334c0-11-9-20-20-20h-260c-11 0-20 9-20 20v20c0 11 9 20 20 20h260c11 0 20-9 20-20v-20z m40 120c0-11-9-20-20-20h-300c-11 0-20 9-20 20v20c0 11 9 20 20 20h300c11 0 20-9 20-20v-20z" horiz-adv-x="1000" />

<glyph glyph-name="custom_notification" unicode="&#xe81f;" d="M538 631l-38-182a10 10 0 0 1 11-11h195a20 20 0 0 0 17-29l-213-349a19 19 0 0 0-35 9l38 215c0 7-7 5-14 5h-205c-13 0-23 20-16 32l225 319a19 19 0 0 0 35-9z" horiz-adv-x="1000" />

<glyph glyph-name="custom" unicode="&#xe820;" d="M792 522c-2 7-11 9-17 4l-101-101c-8-8-20-8-28 0l-71 71c-8 8-8 20 0 28l102 102c5 5 3 14-4 17-17 4-35 7-53 7-106 0-191-92-179-200 2-17 6-32 12-47l-233-234c-27-27-27-72 0-99 14-14 32-21 50-21s36 7 50 21l233 233c15-6 31-10 47-12 109-12 200 73 200 179 0 18-3 36-8 52z" horiz-adv-x="1000" />

<glyph glyph-name="dashboard" unicode="&#xe821;" d="M500 650c-165 0-300-135-300-300s135-300 300-300 300 135 300 300-135 300-300 300z m0-80c121 0 220-99 220-220 0-10-1-20-2-30h-89c-10 0-18-7-20-17-8-52-54-93-109-93s-101 41-109 93c-1 10-10 17-20 17h-89c-1 10-2 20-2 30 0 121 99 220 220 220z m-23-294c24-13 55-3 68 21 19 35 55 189 46 193-9 5-116-111-134-147-14-24-5-54 20-67z" horiz-adv-x="1000" />

<glyph glyph-name="datadotcom" unicode="&#xe822;" d="M711 50h-68c-4 24-6 46-6 65h-1c-32-51-84-77-156-77-61 0-109 20-142 63-33 42-49 97-49 163 0 43 8 82 24 116s40 63 70 82c31 20 66 31 107 31 59 0 106-19 142-56v213h72v-506c0-30 3-62 7-94z m-79 185v137c-17 22-36 37-57 49-22 10-46 15-74 15-42 0-75-15-100-47s-36-73-36-123c0-52 11-93 34-124s56-46 97-46 74 13 98 40c26 25 38 58 38 99z" horiz-adv-x="1000" />

<glyph glyph-name="default" unicode="&#xe823;" d="M446 522c21 21 49 34 81 34 42 0 79-23 99-57 17 7 36 12 56 12 76-1 138-62 138-137 0-76-62-137-138-137-9 0-18 1-27 3-17-30-50-51-88-51-16 0-31 4-44 10-18-40-58-69-106-69-50 0-92 31-108 74-7-1-14-2-22-2-59 0-107 47-107 106 0 39 21 74 53 92-7 15-10 31-10 48 0 67 56 122 124 122 41 0 77-19 99-48" horiz-adv-x="1000" />

<glyph glyph-name="document" unicode="&#xe824;" d="M730 430h-140c-33 0-60 27-60 60v140c0 11-9 20-20 20h-200c-33 0-60-27-60-60v-480c0-33 27-60 60-60h380c33 0 60 27 60 60v300c0 11-9 20-20 20z m16 84l-132 132c-3 3-6 4-10 4-8 0-14-6-14-14v-106c0-22 18-40 40-40h106c8 0 14 6 14 14 0 4-1 7-4 10z" horiz-adv-x="1000" />

<glyph glyph-name="drafts" unicode="&#xe825;" d="M730 650h-320c-33 0-60-27-60-60v-10c0-6 4-10 10-10h290c33 0 60-27 60-60v-310c0-6 4-10 10-10h10c33 0 60 27 60 60v340c0 33-27 60-60 60z m-140-140h-320c-33 0-60-27-60-60v-340c0-33 27-60 60-60h320c33 0 60 27 60 60v340c0 33-27 60-60 60z m-300-100c0 11 9 20 20 20h200c11 0 20-9 20-20v-20c0-11-9-20-20-20h-200c-11 0-20 9-20 20v20z m240-260c0-11-9-20-20-20h-200c-11 0-20 9-20 20v20c0 11 9 20 20 20h200c11 0 20-9 20-20v-20z m40 120c0-11-9-20-20-20h-240c-11 0-20 9-20 20v20c0 11 9 20 20 20h240c11 0 20-9 20-20v-20z" horiz-adv-x="1000" />

<glyph glyph-name="email_chatter" unicode="&#xe826;" d="M487 300c8-7 19-7 27 0l283 262c5 10 4 26-16 26l-560-1c-15 0-27-14-16-26l282-261z m313 150c0 13-16 20-25 11l-220-204c-15-14-34-21-54-21s-39 7-54 21l-221 204c-10 9-25 2-25-11v-260c0-33 27-60 60-60h480c33 0 60 27 60 60-1 0-1 180-1 260z" horiz-adv-x="1000" />

<glyph glyph-name="email" unicode="&#xe827;" d="M487 300c8-7 19-7 27 0l283 262c5 10 4 26-16 26l-560-1c-15 0-27-14-16-26l282-261z m313 150c0 13-16 20-25 11l-220-204c-15-14-34-21-54-21s-39 7-54 21l-221 204c-10 9-25 2-25-11v-260c0-33 27-60 60-60h480c33 0 60 27 60 60-1 0-1 180-1 260z" horiz-adv-x="1000" />

<glyph glyph-name="empty" unicode="&#xe828;" d="M720 70h-440c-33 0-60 27-60 60v440c0 33 27 60 60 60h440c33 0 60-27 60-60v-440c0-33-27-60-60-60z m-440 480v-400c0-11 9-20 20-20h400c11 0 20 9 20 20v400c0 11-9 20-20 20h-400c-11 0-20-9-20-20z" horiz-adv-x="1000" />

<glyph glyph-name="endorsement" unicode="&#xe829;" d="M279 430h-59c-11 0-20-9-20-20v-323c0-11 9-17 20-17h20c33 0 60 27 60 60v279c0 12-9 21-21 21z m441-10h-60c-33 0-60 27-60 60v120c0 33-27 60-60 60h-40c-11 0-20-9-20-20v-80c0-70-36-140-100-140-11 0-20-9-20-20v-280c0-11 8-19 19-20 89-5 148-39 241-39 100 0 180 32 180 127v152c0 44-36 80-80 80z" horiz-adv-x="1000" />

<glyph glyph-name="environment_hub" unicode="&#xe82a;" d="M431 380c4 42 16 83 36 118 33 57 86 90 158 92 12 35 46 60 85 60 50 0 90-40 90-90s-40-90-90-90c-39 0-72 25-85 60-81-3-125-66-134-150h134c12 35 46 60 85 60 50 0 90-40 90-90s-40-90-90-90c-39 0-73 25-85 60h-134c7-90 49-151 134-150 12 35 46 60 85 60 50 0 90-40 90-90s-40-90-90-90c-39 0-73 25-85 60-74-1-128 33-161 91-19 35-30 76-33 119h-56c-12-35-46-60-85-60-50 0-90 40-90 90s40 90 90 90c39 0 73-25 85-60h56z m279 150c17 0 30 13 30 30s-13 30-30 30-30-13-30-30 13-30 30-30z m0-420c17 0 30 13 30 30s-13 30-30 30-30-13-30-30 13-30 30-30z m0 210c17 0 30 13 30 30s-13 30-30 30-30-13-30-30 13-30 30-30z m-420 0c17 0 30 13 30 30s-13 30-30 30-30-13-30-30 13-30 30-30z" horiz-adv-x="1000" />

<glyph glyph-name="event" unicode="&#xe82b;" d="M760 430h-520c-11 0-20-9-20-20v-300c0-33 27-60 60-60h440c33 0 60 27 60 60v300c0 11-9 20-20 20z m-360-280c0-11-9-20-20-20h-40c-11 0-20 9-20 20v40c0 11 9 20 20 20h40c11 0 20-9 20-20v-40z m0 140c0-11-9-20-20-20h-40c-11 0-20 9-20 20v40c0 11 9 20 20 20h40c11 0 20-9 20-20v-40z m140-140c0-11-9-20-20-20h-40c-11 0-20 9-20 20v40c0 11 9 20 20 20h40c11 0 20-9 20-20v-40z m0 140c0-11-9-20-20-20h-40c-11 0-20 9-20 20v40c0 11 9 20 20 20h40c11 0 20-9 20-20v-40z m140-140c0-11-9-20-20-20h-40c-11 0-20 9-20 20v40c0 11 9 20 20 20h40c11 0 20-9 20-20v-40z m0 140c0-11-9-20-20-20h-40c-11 0-20 9-20 20v40c0 11 9 20 20 20h40c11 0 20-9 20-20v-40z m40 300h-50v20c0 22-18 40-40 40s-40-18-40-40v-20h-180v20c0 22-18 40-40 40s-40-18-40-40v-20h-50c-33 0-60-27-60-60v-20c0-11 9-20 20-20h520c11 0 20 9 20 20v20c0 33-27 60-60 60z" horiz-adv-x="1000" />

<glyph glyph-name="feed" unicode="&#xe82c;" d="M490 130c-4 0-9 1-14 4-8 4-14 13-16 22l-78 312-65-149c-4-12-15-19-27-19h-90c-11 0-20 9-20 20v20c0 11 9 20 20 20h70l92 212c5 12 17 19 30 18 13-1 24-10 27-23l79-316 104 231c5 12 17 19 30 18 11-1 21-9 26-20l52-120h90c11 0 20-9 20-20v-20c0-11-9-20-20-20h-110c-12 0-23 7-28 18l-33 77-112-247c-5-11-15-18-27-18z" horiz-adv-x="1000" />

<glyph glyph-name="feedback" unicode="&#xe82d;" d="M791 285c-1 4-1 9 2 12 17 31 27 66 27 103 0 116-99 210-220 210-52 0-100-18-138-47 125-27 218-135 218-263 0-36-7-71-21-102 20 5 39 13 57 24 4 2 8 3 12 1l64-23c11-4 22 7 19 19l-20 66z m-391 225c-121 0-220-94-220-210 0-37 10-72 28-103 2-4 3-8 2-12l-21-67c-4-12 7-23 19-19l64 23c4 1 9 1 12-1 34-20 73-31 116-31 121 0 220 94 220 210s-99 210-220 210z m-120-250c-22 0-40 18-40 40s18 40 40 40 40-18 40-40-18-40-40-40z m120 0c-22 0-40 18-40 40s18 40 40 40 40-18 40-40-18-40-40-40z m120 0c-22 0-40 18-40 40s18 40 40 40 40-18 40-40-18-40-40-40z" horiz-adv-x="1000" />

<glyph glyph-name="file" unicode="&#xe82e;" d="M290 220v320c-33 0-60-27-60-60v-380c0-33 27-60 60-60h300c33 0 60 27 60 60h-240c-66 0-120 0-120 120z m460 260h-100c-33 0-60 27-60 60v100c0 11-9 20-20 20h-160c-33 0-60-27-60-60v-380c0-33 27-60 60-60h300c33 0 60 27 60 60v240c0 11-9 20-20 20z m16 84l-92 92c-3 3-6 4-10 4-8 0-14-6-14-14v-66c0-22 18-40 40-40h66c8 0 14 6 14 14 0 4-1 7-4 10z" horiz-adv-x="1000" />

<glyph glyph-name="flow" unicode="&#xe82f;" d="M799 543c-26 51-92 146-215 90-76-35-119-55-119-55l-110-48c-31-15-99 6-137 20-11 4-21-8-16-19 26-51 92-146 215-90 76 35 229 101 229 101 31 15 99-6 137-20 11-2 21 9 16 21z m-264-161c-14-8-69-33-69-33l-55-24c-27-15-86 5-121 19-10 5-19-8-14-18 22-50 81-140 189-85 67 34 124 56 124 56 27 15 86-5 121-19 10-4 19 8 14 19-23 50-82 140-189 85z m-40-221c-11-6-30-18-30-18-21-13-65 4-91 17-7 4-14-8-10-18 16-45 60-126 141-76 30 19 30 18 30 18 22 11 65-4 91-16 7-4 14 8 10 18-16 44-57 121-141 75z m5 189" horiz-adv-x="1000" />

<glyph glyph-name="folder" unicode="&#xe830;" d="M750 503h-284c-18 0-34 10-44 25l-44 76c-8 16-24 26-43 26h-85c-28 0-50-23-50-51v-458c0-28 22-51 50-51h500c28 0 50 23 50 51v331c0 28-22 51-50 51z m0 102h-301c-5 0-8-5-5-9l20-34c2-5 6-8 11-8h275c14 0 28-3 39-8 5-3 11 1 11 8 0 28-22 51-50 51z" horiz-adv-x="1000" />

<glyph glyph-name="forecasts" unicode="&#xe831;" d="M777 558s-35 72-113 72-115-74-115-74c-52 25-99 0-99 0s-36 74-114 74-113-72-113-72-73-163-75-309c-2-144 95-179 141-179 50 0 168 21 162 185 0 0 12 28 45 27 40 0 54-27 54-27-6-164 112-185 161-185 45 0 143 35 141 179-2 146-75 309-75 309z m-479-424c-48 0-87 39-87 87s39 87 87 87 87-39 87-87-39-87-87-87z m404 0c-48 0-87 39-87 87s39 87 87 87 87-39 87-87-39-87-87-87z" horiz-adv-x="1000" />

<glyph glyph-name="generic_loading" unicode="&#xe832;" d="M515 630h-30c-8 0-15-7-15-15v-130c0-8 7-15 15-15h30c8 0 15 7 15 15v130c0 8-7 15-15 15z m250-250h-130c-8 0-15-7-15-15v-30c0-8 7-15 15-15h130c8 0 15 7 15 15v30c0 8-7 15-15 15z m-250-150h-30c-8 0-15-7-15-15v-130c0-8 7-15 15-15h30c8 0 15 7 15 15v130c0 8-7 15-15 15z m-135 105v30c0 8-7 15-15 15h-130c-8 0-15-7-15-15v-30c0-8 7-15 15-15h130c8 0 15 7 15 15z m215 89c6-6 15-6 21 0l92 92c6 6 6 15 0 21l-21 21c-6 6-15 6-21 0l-92-92c-6-6-6-15 0-21l21-21z m22-148c-6 6-15 6-21 0l-21-21c-6-6-6-15 0-21l92-92c6-6 15-6 21 0l21 21c6 6 6 15 0 21l-92 92z m-212 0c-6 6-15 6-21 0l-92-92c-6-6-6-15 0-21l21-21c6-6 15-6 21 0l92 92c6 6 6 15 0 21l-21 21z m-71 283c-6 6-15 6-21 0l-21-21c-6-6-6-15 0-21l92-92c6-6 15-6 21 0l21 21c6 6 6 15 0 21l-92 92z" horiz-adv-x="1000" />

<glyph glyph-name="goals" unicode="&#xe833;" d="M260 650c-33 0-60-27-60-60 0-18 8-34 20-45v-455c0-22 18-40 40-40s40 18 40 40v455c12 11 20 27 20 45 0 33-27 60-60 60z m505-108c-157-82-244 59-392 5-8-3-13-11-13-19v-258c0-13 13-23 26-19 142 43 229-91 384-7 6 4 10 10 10 17v272c0 8-8 13-15 9z m-45-137c-19-5-38-5-58-5h-2v-60h2c20 0 39 1 58 6v-59c-18-6-36-8-58-8h-2v60c-20 0-40 3-60 7v-60c-14 3-28 7-41 11-7 2-13 4-19 6v59c-22 7-39 13-60 16v-60c-10 1-22 2-35 2-9 0-17-1-25-2v60c8 1 17 2 25 2 13 0 25-1 35-2v57c-10 2-21 4-35 4-9 0-17-1-25-2v60c8 1 17 2 25 2 14 0 24-2 35-4v-60c15-4 30-10 52-16 3-1 5-1 8-2v60c20-6 39-10 60-14v-59c19-4 39-4 60-4v60h2c20 0 39-2 58 2v-57z m-180 12v-55c4-1 9-3 13-4 16-4 31-9 47-12v57c-21 5-40 9-60 14z" horiz-adv-x="1000" />

<glyph glyph-name="group_loading" unicode="&#xe834;" d="M367 326c-17 27-27 59-27 94 0 59 25 109 65 139-15 25-40 41-75 41-58 0-90-46-90-100 0-29 10-53 29-71 11-10 20-23 20-37 0-14-5-26-38-40-47-21-90-48-91-92 0-29 19-50 46-50h43c7 0 14 4 17 10 21 38 60 62 93 78 11 5 15 18 8 28z m382 26c-33 14-38 27-38 40 0 14 9 27 20 37 19 18 29 42 29 71 0 54-32 100-90 100-35 0-60-16-75-41 40-30 65-79 65-139 0-35-9-67-27-94-7-10-3-23 8-29 33-16 72-40 93-78 3-6 10-10 17-10h43c27 0 46 21 46 50-1 44-44 72-91 93z m-162-96c-36 15-41 29-41 44 0 15 10 30 22 41 21 19 33 47 33 79 0 59-36 110-100 110s-100-51-100-110c0-32 12-59 33-79 12-11 22-26 22-41 0-15-6-29-41-44-54-22-104-48-105-96 0-32 23-60 53-60h274c30 0 53 28 53 60-1 48-51 74-103 96z" horiz-adv-x="1000" />

<glyph glyph-name="groups" unicode="&#xe835;" d="M367 326c-17 27-27 59-27 94 0 59 25 109 65 139-15 25-40 41-75 41-58 0-90-46-90-100 0-29 10-53 29-71 11-10 20-23 20-37 0-14-5-26-38-40-47-21-90-48-91-92 0-29 19-50 46-50h43c7 0 14 4 17 10 21 38 60 62 93 78 11 5 15 18 8 28z m382 26c-33 14-38 27-38 40 0 14 9 27 20 37 19 18 29 42 29 71 0 54-32 100-90 100-35 0-60-16-75-41 40-30 65-79 65-139 0-35-9-67-27-94-7-10-3-23 8-29 33-16 72-40 93-78 3-6 10-10 17-10h43c27 0 46 21 46 50-1 44-44 72-91 93z m-162-96c-36 15-41 29-41 44 0 15 10 30 22 41 21 19 33 47 33 79 0 59-36 110-100 110s-100-51-100-110c0-32 12-59 33-79 12-11 22-26 22-41 0-15-6-29-41-44-54-22-104-48-105-96 0-32 23-60 53-60h274c30 0 53 28 53 60-1 48-51 74-103 96z" horiz-adv-x="1000" />

<glyph glyph-name="hierarchy" unicode="&#xe836;" d="M463 387h-169c-10 0-19-8-19-18v-144h-56c-10 0-19-9-19-19v-137c0-10 9-19 19-19h187c10 0 19 9 19 19v137c0 10-9 19-19 19h-56v87h300v-87h-56c-10 0-19-9-19-19v-137c0-10 9-19 19-19h188c10 0 18 9 18 19v137c0 10-8 19-18 19h-57v144c0 10-9 18-19 18h-168v88h56c10 0 18 9 18 19v137c0 10-8 19-18 19h-188c-10 0-19-9-19-19v-137c0-10 9-19 19-19h57v-88z" horiz-adv-x="1000" />

<glyph glyph-name="home" unicode="&#xe837;" d="M788 338h-63v-275c0-8-5-12-13-12h-124c-8 0-13 5-13 12v212h-150v-212c0-8-5-12-13-12h-124c-8 0-13 5-13 12v275h-63c-5 0-10 2-11 8-3 5-1 10 3 14l288 288c5 5 14 5 18 0l288-288c4-4 4-9 3-14s-8-8-13-8z" horiz-adv-x="1000" />

<glyph glyph-name="household" unicode="&#xe838;" d="M515 644c-9 8-22 8-30 0l-278-256c-15-14-5-38 15-38h38v-240c0-33 27-60 60-60h360c33 0 60 27 60 60v240h38c20 0 30 24 15 38l-278 256z m-146-433c-2-3-6-1-10-1h-24c-15 0-25 8-25 24 1 24 25 36 51 47 18 8 21 15 21 23 0 8-5 15-11 21-11 10-16 24-16 40 0 30 18 56 50 56 19 0 33-9 42-23-23-18-37-45-37-79 0-19 5-37 15-52 4-6 2-11-5-14-17-9-39-21-51-42z m207-71h-152c-17 0-30 16-30 34 1 27 29 41 58 54 20 9 23 16 23 25 0 9-6 17-12 23-12 11-18 26-18 44 0 33 20 62 56 62s56-29 56-62c0-18-6-33-18-44-7-6-12-14-12-23 0-8 3-16 23-25 29-13 57-27 58-54-2-18-15-34-32-34z m89 70h-24c-4 0-8-2-10 1-12 21-34 30-52 39-6 3-8 10-4 16 10 15 15 33 15 52 0 33-14 61-36 78 8 14 22 23 42 23 33 0 50-26 50-56 0-16-5-30-16-40-6-6-11-13-11-21s3-15 21-23c26-12 51-23 51-47-1-14-11-22-26-22z" horiz-adv-x="1000" />

<glyph glyph-name="insights" unicode="&#xe839;" d="M783 581h-473c-9 0-17-8-17-17v-352c0-14-13-25-27-23-12 2-20 13-20 24v252c0 7-5 12-12 12h-17c-9 0-17-8-17-17v-294c0-25 21-46 46-46h508c25 0 46 21 46 46v397c0 10-8 18-17 18z m-260-335c0-7-5-12-12-12h-138c-7 0-12 5-12 12v23c0 7 5 12 12 12h138c7 0 12-5 12-12v-23z m0 92c0-7-5-12-12-12h-138c-7 0-12 5-12 12v23c0 7 5 12 12 12h138c7 0 12-5 12-12v-23z m208-92c0-7-5-12-12-12h-138c-7 0-12 5-12 12v23c0 7 5 12 12 12h138c7 0 12-5 12-12v-23z m0 92c0-7-5-12-12-12h-138c-7 0-12 5-12 12v23c0 7 5 12 12 12h138c7 0 12-5 12-12v-23z m0 93c0-7-5-12-12-12h-346c-7 0-12 5-12 12v69c0 7 5 12 12 12h346c7 0 12-5 12-12v-69z" horiz-adv-x="1000" />

<glyph glyph-name="investment_account" unicode="&#xe83a;" d="M740 580h-480c-33 0-60-27-60-60v-340c0-33 27-60 60-60h480c33 0 60 27 60 60v340c0 33-27 60-60 60z m-50-270c0-9-10-13-17-7l-46 46-106-91c-12-12-31-12-42 0l-64 73-114-100c-4-4-10-4-14 0l-5 5c-4 4-4 10 0 14l112 153c12 12 31 12 42 0l64-64 65 75-42 38c-6 6-2 18 7 18h140c11 0 19-10 19-21v-139z" horiz-adv-x="1000" />

<glyph glyph-name="lead" unicode="&#xe83b;" d="M780 410h-560c-20 0-28-25-11-36l146-94c7-5 11-14 8-22l-55-183c-6-20 20-34 35-19l142 150c8 9 22 9 30 0l142-150c14-15 40-1 35 19l-55 183c-2 8 1 17 8 22l146 94c17 11 9 36-11 36z" horiz-adv-x="1000" />

<glyph glyph-name="link" unicode="&#xe83c;" d="M515 156c-9 1-17 2-26 4-9 2-18 4-27 7-5 2-11 1-15-3l-6-6c-36-36-94-40-133-7-42 37-44 101-5 140l95 95c12 12 27 21 43 25 20 5 41 4 60-4 12-5 23-12 32-21 5-5 9-11 12-17 5-8 16-10 23-3l35 35c5 5 6 13 1 19-5 7-11 14-17 20-9 9-19 17-30 24-18 11-38 19-58 23-39 8-81 2-117-18-14-8-27-17-39-29l-92-92c-66-66-71-173-8-241 67-72 179-74 248-5l31 31c10 7 5 22-7 23z m230 449c-68 63-176 58-241-8l-29-27c-9-9-3-23 9-24 18-1 35-5 53-11 5-2 11 0 15 3l6 6c36 36 94 40 133 7 42-37 44-101 5-140l-95-95c-12-12-27-21-43-25-20-5-41-4-60 4-12 5-23 12-32 21-5 5-9 10-12 16-5 8-16 10-23 3l-35-35c-5-5-6-13-1-19 5-7 11-14 17-20 9-9 19-17 30-24 18-10 38-17 58-21 39-8 81-2 117 18 14 8 27 17 39 29l95 95c67 68 66 181-6 247z" horiz-adv-x="1000" />

<glyph glyph-name="location" unicode="&#xe83d;" d="M775 567l-180 90a32 32 0 0 1-26 0l-166-84-168 84a31 31 0 0 1-31-1 29 29 0 0 1-14-25v-450a29 29 0 0 1 16-26l180-90a32 32 0 0 1 27 0l167 83 166-83a25 25 0 0 1 14-4 28 28 0 0 1 16 5 29 29 0 0 1 14 25v450a28 28 0 0 1-15 26z m-47-57v-238a19 19 0 0 0-25-19c-47 18-9 95-43 138-31 39-71-1-110 60-36 59 13 101 58 124a21 21 0 0 0 17 0l93-47a20 20 0 0 0 10-18z m-252-348a21 21 0 0 0-22 3 66 66 0 0 0-23 46c0 30-50 20-50 80 0 49-57 61-106 56a19 19 0 0 0-21 20v183a19 19 0 0 0 27 17l108-53a4 4 0 0 0 2-2l4-2c45-26 36-48 17-80-21-36-30 0-60 10s-60-10-50-30 40 0 60-20 20-50 80-30 70 10 90-10a63 63 0 0 0 0-90c-17-18-25-55-32-80a20 20 0 0 0-10-13z" horiz-adv-x="1000" />

<glyph glyph-name="log_a_call" unicode="&#xe83e;" d="M697 650h-376c-33 0-61-30-61-60v-20h-20c-22 0-40-18-40-40s18-40 40-40h20v-100h-20c-22 0-40-18-40-40s18-40 40-40h20v-100h-20c-22 0-40-18-40-40s18-40 40-40h20v-20c0-30 28-60 61-60h376c33 0 63 30 63 63v480c0 33-30 57-63 57z m-36-403l-28-28c-6-6-15-10-23-9-66 4-128 34-172 77-44 44-74 106-77 172 0 9 3 17 9 23l28 28c13 13 35 12 46-3l26-32c9-11 9-26 1-38l-22-31c-3-4-3-10 1-13l46-51 51-46c4-4 9-4 13-1l31 22c11 8 27 8 38-1l32-26c12-8 13-30 0-43z" horiz-adv-x="1000" />

<glyph glyph-name="marketing_actions" unicode="&#xe83f;" d="M475 590c-51-3-92-44-95-95 2 52 43 93 95 95z m105-95c-3 51-44 92-95 95 52-2 93-43 95-95z m56-193l-102 35c-8 3-14 10-14 19v136c0 21-17 38-38 38h-4c-21 0-38-17-38-38v-269c0-23-29-32-41-12l-26 55c-14 24-45 30-67 14l-16-12 86-204c4-9 12-14 22-14h226c11 0 20 8 23 18l40 143c8 39-14 78-51 91z m-256 86v107c3 51 44 92 95 95h10c51-3 92-44 95-95v-107c0-9 11-13 17-7 27 29 43 67 43 109 0 93-80 168-175 159-72-7-132-63-143-134-8-50 8-99 41-134 6-6 17-2 17 7z" horiz-adv-x="1000" />

<glyph glyph-name="merge" unicode="&#xe840;" d="M705 125c-70 34-120 94-145 163-10 26-16 53-19 79v44h136c11 0 17 12 10 22l-177 212c-6 8-20 8-25 0l-173-212c-6-8 0-22 10-22h137v-44c-3-27-10-55-19-79-26-68-75-129-145-163-10-4-14-16-10-26l16-38c5-11 16-14 27-8 76 36 135 94 172 162 37-69 96-126 173-162 11-5 22-4 27 8l16 38c4 10-1 22-11 26z" horiz-adv-x="1000" />

<glyph glyph-name="metrics" unicode="&#xe841;" d="M720 630h-440c-33 0-60-27-60-60v-440c0-33 27-60 60-60h440c33 0 60 27 60 60v440c0 33-27 60-60 60z m-340-440c0-11-9-20-20-20h-20c-11 0-20 9-20 20v110c0 11 9 20 20 20h20c11 0 20-9 20-20v-110z m100 0c0-11-9-20-20-20h-20c-11 0-20 9-20 20v260c0 11 9 20 20 20h20c11 0 20-9 20-20v-260z m100 0c0-11-9-20-20-20h-20c-11 0-20 9-20 20v320c0 11 9 20 20 20h20c11 0 20-9 20-20v-320z m100 0c0-11-9-20-20-20h-20c-11 0-20 9-20 20v190c0 11 9 20 20 20h20c11 0 20-9 20-20v-190z" horiz-adv-x="1000" />

<glyph glyph-name="news" unicode="&#xe842;" d="M783 581h-473c-9 0-17-8-17-17v-352c0-14-13-25-27-23-12 2-20 13-20 24v252c0 7-5 12-12 12h-17c-9 0-17-8-17-17v-294c0-25 21-46 46-46h508c25 0 46 21 46 46v397c0 10-8 18-17 18z m-260-335c0-7-5-12-12-12h-138c-7 0-12 5-12 12v23c0 7 5 12 12 12h138c7 0 12-5 12-12v-23z m0 92c0-7-5-12-12-12h-138c-7 0-12 5-12 12v23c0 7 5 12 12 12h138c7 0 12-5 12-12v-23z m208-92c0-7-5-12-12-12h-138c-7 0-12 5-12 12v23c0 7 5 12 12 12h138c7 0 12-5 12-12v-23z m0 92c0-7-5-12-12-12h-138c-7 0-12 5-12 12v23c0 7 5 12 12 12h138c7 0 12-5 12-12v-23z m0 93c0-7-5-12-12-12h-346c-7 0-12 5-12 12v69c0 7 5 12 12 12h346c7 0 12-5 12-12v-69z" horiz-adv-x="1000" />

<glyph glyph-name="note" unicode="&#xe843;" d="M713 180l-11-11c-12-12-29-19-46-19h-33c-30 0-63 23-63 65v31c0 25 11 40 18 48l135 136c4 4 7 12 7 17v103c0 33-27 60-60 60h-320c-33 0-60-30-60-60h-20c-22 0-40-18-40-40s18-40 40-40h20v-80h-20c-22 0-40-18-40-40s18-40 40-40h20v-80h-20c-22 0-40-18-40-40s18-40 40-40h20c0-40 27-60 60-60h320c33 0 60 27 60 60v27c0 6-3 7-7 3z m-103 280c0-11-9-20-20-20h-200c-11 0-20 9-20 20v20c0 11 9 20 20 20h200c11 0 20-9 20-20v-20z m-90-240c0-11-9-20-20-20h-110c-11 0-20 9-20 20v20c0 11 9 20 20 20h110c11 0 20-9 20-20v-20z m30 120c0-11-9-20-20-20h-140c-11 0-20 9-20 20v20c0 11 9 20 20 20h140c11 0 20-9 20-20v-20z m264 54l-12 12c-8 8-20 8-28 0l-153-155c-1 0-1-2-1-3v-33c0-3 0-5 3-5h33c1 0 3 1 4 1l154 154c8 9 8 21 0 29z" horiz-adv-x="1000" />

<glyph glyph-name="operating_hours" unicode="&#xe844;" d="M530 348a13 13 0 0 0-4 10v84a14 14 0 0 1-13 14h-26a14 14 0 0 1-13-14v-106a19 19 0 0 1 4-10l65-65a13 13 0 0 1 18 0l19 19a13 13 0 0 1 0 19z m-30 213a211 211 0 1 1 212-211 212 212 0 0 1-212 211z m0-370a158 158 0 1 0 159 159 159 159 0 0 0-159-158z m-212 60a157 157 0 0 0 0 198l-35 41a210 210 0 0 1 0-279z m424 198a157 157 0 0 0 0-198l34-41a210 210 0 0 1 0 279z" horiz-adv-x="1000" />

<glyph glyph-name="opportunity" unicode="&#xe845;" d="M711 160h-422c-10 0-19-9-19-19v-1c0-33 27-60 60-60h340c33 0 60 27 60 60v1c0 10-9 19-19 19z m49 410c-33 0-60-27-60-60 0-18 8-35 21-46-17-39-56-66-102-64-53 3-96 46-99 99 0 9 0 17 2 25 22 9 38 30 38 56 0 33-27 60-60 60s-60-27-60-60c0-25 16-47 38-56 2-8 2-16 2-25-3-53-46-96-99-99-46-3-86 25-102 64 13 11 21 28 21 46 0 33-27 60-60 60s-60-27-60-60 27-60 60-60l28-214c1-9 9-16 19-16h426c9 0 17 7 19 16l28 214c33 0 60 27 60 60s-27 60-60 60z" horiz-adv-x="1000" />

<glyph glyph-name="orders" unicode="&#xe846;" d="M788 229l-36 17c-5 3-12 3-17 0l-215-102c-12-6-27-6-39 0l-216 102c-5 3-12 3-17 0l-36-17c-16-8-16-29 0-37l268-127c12-6 27-6 39 0l268 127c17 8 17 30 1 37z m0 140l-37 17c-5 3-12 3-17 0l-214-102c-12-6-27-6-39 0l-215 102c-5 3-12 3-17 0l-37-17c-16-8-16-29 0-37l268-128c12-6 27-6 39 0l268 127c17 8 17 30 1 38z m-576 103l268-127c12-6 27-6 39 0l268 127c16 8 16 29 0 37l-268 127c-12 6-27 6-39 0l-268-128c-16-7-16-29 0-36z" horiz-adv-x="1000" />

<glyph glyph-name="people" unicode="&#xe847;" d="M800 138v-28c0-33-27-60-60-60h-480c-33 0-60 27-60 60v28c0 73 85 117 165 152 3 1 5 2 8 4 6 3 13 3 19-1 32-21 69-33 108-33 39 0 76 12 108 32 6 4 13 4 19 1 3-1 5-2 8-4 80-34 165-78 165-151z" horiz-adv-x="1000" />

<glyph glyph-name="performance" unicode="&#xe848;" d="M300 650h-20c-33 0-60-30-60-60v-480c0-30 27-60 60-60h20c11 0 20 9 20 20v560c0 11-9 20-20 20z m420 0h-320c-11 0-20-9-20-20v-560c0-11 9-20 20-20h320c33 0 60 27 60 60v480c0 33-27 60-60 60z m-22-268l-52-53c-1-1-2-4-2-6l12-75c1-5-4-9-9-7l-65 36c-2 1-4 1-6 0l-65-36c-5-2-10 2-9 7l12 75c0 2 0 4-2 6l-52 53c-4 4-2 10 3 11l72 11c2 0 4 2 5 4l32 69c2 5 9 5 11 0l32-69c1-2 3-3 5-4l72-11c8-1 10-7 6-11z" horiz-adv-x="1000" />

<glyph glyph-name="person_account" unicode="&#xe849;" d="M695 260c-36 15-42 29-42 44 0 15 10 29 22 40 21 19 33 46 33 78 0 58-37 109-102 109s-102-50-102-109c0-32 12-58 33-78 12-11 22-25 22-40s-6-29-42-44c-53-22-104-50-105-98 0-31 24-62 54-62h278c31 0 54 31 54 62 1 47-50 75-103 98z m-240-46m11 122c-4 5-24 30-22 97 1 66 30 83 30 83v65c0 11-11 19-19 19h-236s-19-9-19-20v-436h135c3 111 130 156 130 156 19 10 5 31 1 36z m-159-137c0-11-9-20-20-20h-20c-11 0-20 9-20 20v20c0 11 9 20 20 20h20c11 0 20-9 20-20v-20z m0 99c0-11-9-20-20-20h-20c-11 0-20 9-20 20v20c0 11 9 20 20 20h20c11 0 20-9 20-20v-20z m0 99c0-11-9-20-20-20h-20c-11 0-20 9-20 20v20c0 11 9 20 20 20h20c11 0 20-9 20-20v-20z m0 99c0-11-9-20-20-20h-20c-11 0-20 9-20 20v20c0 11 9 20 20 20h20c11 0 20-9 20-20v-20z m112-198c0-11-9-20-20-20h-20c-11 0-20 9-20 20v20c0 11 9 20 20 20h20c11 0 20-9 20-20v-20z m0 99c0-11-9-20-20-20h-20c-11 0-20 9-20 20v20c0 11 9 20 20 20h20c11 0 20-9 20-20v-20z m0 99c0-11-9-20-20-20h-20c-11 0-20 9-20 20v20c0 11 9 20 20 20h20c11 0 20-9 20-20v-20z" horiz-adv-x="1000" />

<glyph glyph-name="photo" unicode="&#xe84a;" d="M360 540h280c8 0 13 9 8 15l-33 51c-10 20-31 33-54 33h-122c-23 0-44-13-54-33l-33-51c-5-6 0-15 8-15z m140-180c-44 0-80-36-80-80s36-80 80-80 80 36 80 80-36 80-80 80z m240 120h-480c-33 0-60-27-60-60v-280c0-33 27-60 60-60h480c33 0 60 27 60 60v280c0 33-27 60-60 60z m-240-340c-77 0-140 63-140 140s63 140 140 140 140-63 140-140-63-140-140-140z" horiz-adv-x="1000" />

<glyph glyph-name="poll" unicode="&#xe84b;" d="M760 650h-520c-22 0-40-18-40-40v-80c0-22 18-40 40-40h520c22 0 40 18 40 40v80c0 22-18 40-40 40z m-250-120v80h250v-80h-250z m250-100h-520c-22 0-40-18-40-40v-80c0-22 18-40 40-40h520c22 0 40 18 40 40v80c0 22-18 40-40 40z m-340-120v80h340v-80h-340z m340-100h-520c-22 0-40-18-40-40v-80c0-22 18-40 40-40h520c22 0 40 18 40 40v80c0 22-18 40-40 40z m-160-120v80h160v-80h-160z" horiz-adv-x="1000" />

<glyph glyph-name="portal" unicode="&#xe84c;" d="M720 630h-440c-33 0-60-27-60-60v-440c0-33 27-60 60-60h440c33 0 60 27 60 60v440c0 33-27 60-60 60z m-130-406c3-12-7-24-19-24h-141c-13 0-22 12-19 24l32 110c-31 22-49 61-41 104 8 40 39 72 79 79 63 13 119-36 119-99 0-35-17-65-43-83l33-111z" horiz-adv-x="1000" />

<glyph glyph-name="post" unicode="&#xe84d;" d="M492 633c-166 0-300-125-300-280 0-50 14-96 38-137 3-5 4-11 2-16l-28-89c-5-16 10-30 26-25l88 31c6 2 12 1 17-2 46-27 100-42 158-42 166 0 300 125 300 280-2 155-136 280-301 280z" horiz-adv-x="1000" />

<glyph glyph-name="pricebook" unicode="&#xe84e;" d="M717 650h-376c-33 0-61-28-61-58v-22h-20c-22 0-40-18-40-40s18-40 40-40h20v-100h-20c-22 0-40-18-40-40s18-40 40-40h20v-100h-20c-22 0-40-18-40-40s18-40 40-40h20v-18c0-30 28-62 61-62h376c33 0 63 33 63 66v480c0 33-30 54-63 54z m-287-410c0-6-4-10-10-10h-40c-6 0-10 4-10 10v220c0 6 4 10 10 10h40c6 0 10-4 10-10v-220z m80 0c0-6-4-10-10-10h-20c-6 0-10 4-10 10v220c0 6 4 10 10 10h20c6 0 10-4 10-10v-220z m100 0c0-6-4-10-10-10h-40c-6 0-10 4-10 10v220c0 6 4 10 10 10h40c6 0 10-4 10-10v-220z m80 0c0-6-4-10-10-10h-20c-6 0-10 4-10 10v220c0 6 4 10 10 10h20c6 0 10-4 10-10v-220z" horiz-adv-x="1000" />

<glyph glyph-name="process" unicode="&#xe84f;" d="M376 387l108 134c8 10 23 10 31 0l108-134c4-5 10-7 16-7h121c11 0 20 9 20 20v170c0 33-27 60-60 60h-440c-33 0-60-27-60-60v-170c0-11 9-20 20-20h120c6 0 12 3 16 7z m247-74l-108-134c-8-10-23-10-31 0l-108 134c-4 5-10 7-16 7h-120c-11 0-20-9-20-20v-170c0-33 27-60 60-60h440c33 0 60 27 60 60v170c0 11-9 20-20 20h-121c-6 0-12-3-16-7z" horiz-adv-x="1000" />

<glyph glyph-name="product_consumed" unicode="&#xe850;" d="M771 298h-37a19 19 0 0 1-19-18v-125a19 19 0 0 0-19-19h-412a19 19 0 0 0-19 19v125a19 19 0 0 1-19 19h-37a19 19 0 0 1-19-19v-169a50 50 0 0 1 50-50h500a50 50 0 0 1 50 50v169a19 19 0 0 1-19 18z m-293-82a18 18 0 0 1 26 0l169 169a18 18 0 0 1 0 26l-27 26a18 18 0 0 1-26 0l-70-70a13 13 0 0 0-21 9v266a23 23 0 0 1-20 19h-38a19 19 0 0 1-18-19v-265a13 13 0 0 0-22-9l-70 70a18 18 0 0 1-26 0l-26-27a18 18 0 0 1 0-27z" horiz-adv-x="1000" />

<glyph glyph-name="product_item_transaction" unicode="&#xe851;" d="M650 125a14 14 0 0 1 20 0l115 114a14 14 0 0 1 0 21l-115 115a14 14 0 0 1-21 0l-21-21a14 14 0 0 1 0-21l36-36a10 10 0 0 0-7-17h-121a16 16 0 0 1-16-15v-30a17 17 0 0 1 16-15h122a10 10 0 0 0 7-17l-36-36a14 14 0 0 1 0-21z" horiz-adv-x="1000" />

<glyph glyph-name="product_item" unicode="&#xe852;" d="" horiz-adv-x="1000" />

<glyph glyph-name="product_required" unicode="&#xe853;" d="M338 87h-40a20 20 0 0 0-20 20v40a20 20 0 0 0 20 20h40a20 20 0 0 0 20-20v-40a19 19 0 0 0-20-20z m0 179h-40a20 20 0 0 0-20 20v40a20 20 0 0 0 20 20h40a20 20 0 0 0 20-20v-40a19 19 0 0 0-20-20z m137 321l-21 21a14 14 0 0 1-21 0l-132-131-54 52a14 14 0 0 1-21 0l-21-21a14 14 0 0 1 0-21l73-74a30 30 0 0 1 43 0l154 152a17 17 0 0 1 0 22z" horiz-adv-x="1000" />

<glyph glyph-name="product_transfer" unicode="&#xe854;" d="M756 645h-36a18 18 0 0 1-17-18v-83c0-10-12-18-19-9a260 260 0 0 1-221 85 227 227 0 0 1-88-26 229 229 0 0 1-40-25 19 19 0 0 1-2-27l25-25a18 18 0 0 1 22-2 286 286 0 0 0 46 25c7 2 16 4 24 7a195 195 0 0 0 185-64c15-17 4-27-8-27h-83a19 19 0 0 1-19-18v-36a19 19 0 0 1 19-17h216a15 15 0 0 1 14 15v227a18 18 0 0 1-18 18z m-108-419a17 17 0 0 1-24 0 189 189 0 0 0-69-44c-7-2-15-4-24-7a195 195 0 0 0-185 64c-14 17-4 27 8 27h83a18 18 0 0 1 18 18v36a18 18 0 0 1-18 17h-215a16 16 0 0 1-16-15v-227a18 18 0 0 1 18-18h35a18 18 0 0 1 18 18v83c0 10 12 17 19 9a259 259 0 0 1 221-85 227 227 0 0 1 88 26 259 259 0 0 1 67 48 17 17 0 0 1 0 25z" horiz-adv-x="1000" />

<glyph glyph-name="product" unicode="&#xe855;" d="M220 190h50c11 0 20 9 20 20v310c0 11-9 20-20 20h-50c-11 0-20-9-20-20v-310c0-11 9-20 20-20z m560 350h-50c-11 0-20-9-20-20v-310c0-11 9-20 20-20h50c11 0 20 9 20 20v310c0 11-9 20-20 20z m-250-350c11 0 20 9 20 20v310c0 11-9 20-20 20h-60c-11 0-20-9-20-20v-310c0-11 9-20 20-20h60z m120 0c11 0 20 9 20 20v310c0 11-9 20-20 20h-20c-11 0-20-9-20-20v-310c0-11 9-20 20-20h20z m-260 0c11 0 20 9 20 20v310c0 11-9 20-20 20h-20c-11 0-20-9-20-20v-310c0-11 9-20 20-20h20z m390-60h-560c-11 0-20-9-20-20v-20c0-11 9-20 20-20h560c11 0 20 9 20 20v20c0 11-9 20-20 20z m0 520h-560c-11 0-20-9-20-20v-20c0-11 9-20 20-20h560c11 0 20 9 20 20v20c0 11-9 20-20 20z" horiz-adv-x="1000" />

<glyph glyph-name="question_best" unicode="&#xe856;" d="M1000-150v380l-380-380h380z m-39 144l-31-32c-1-1-1-2-1-3l7-45c1-3-3-6-5-4l-38 21c-1 1-2 1-3 0l-40-21c-3-1-6 1-5 4l7 45c0 1 0 3-1 3l-31 32c-2 3-1 6 2 7l43 7c1 0 2 1 3 2l19 41c1 3 5 3 7 0l19-41c1-1 2-2 3-2l43-7c3 0 4-4 2-7z m-462 636c-166 0-300-125-300-280 0-50 14-96 38-137 3-5 4-11 2-16l-28-89c-5-16 10-30 26-25l88 31c6 2 12 1 17-2 46-27 100-42 158-42 166 0 300 125 300 280-1 155-134 280-301 280z m30-450c0-11-9-20-20-20h-20c-11 0-20 9-20 20v20c0 11 9 20 20 20h20c11 0 20-9 20-20v-20z m9 127c-4-1-8-5-8-10v-16c0-11-9-21-20-21h-20c-11 0-20 10-20 21v16c0 30 20 57 49 67 11 4 21 9 27 18 34 45 0 97-45 98-16 1-32-6-44-17-8-8-14-18-16-28-2-9-10-16-19-16h-21c-12 0-22 12-20 24 5 24 16 46 34 63 23 23 54 35 87 34 63-2 115-54 117-117 2-52-30-99-81-116z" horiz-adv-x="1000" />

<glyph glyph-name="question_feed" unicode="&#xe857;" d="M500 630c-166 0-300-125-300-280 0-50 14-96 38-137 3-5 4-11 2-16l-28-89c-5-16 10-30 26-25l88 31c6 2 12 1 17-2 46-27 100-42 158-42 166 0 300 125 300 280-1 155-135 280-301 280z m30-450c0-11-9-20-20-20h-20c-11 0-20 9-20 20v20c0 11 9 20 20 20h20c11 0 20-9 20-20v-20z m8 127c-4-1-8-5-8-10v-16c0-11-9-21-20-21h-20c-11 0-20 10-20 21v16c0 30 20 57 49 67 11 4 21 9 27 18 34 45 0 97-45 98-16 1-32-6-44-17-8-8-14-18-16-28-2-9-10-16-19-16h-21c-12 0-22 12-20 24 5 24 16 46 34 63 23 23 54 35 87 34 63-2 115-54 117-117 2-52-30-99-81-116z" horiz-adv-x="1000" />

<glyph glyph-name="quotes" unicode="&#xe858;" d="M720 630h-219c-14 1-26-6-36-16l-268-269c-23-23-23-61 0-85l212-212c23-23 61-23 85 0l271 272c10 10 16 26 15 40v210c0 33-27 60-60 60z m-216-440l-14-14c-8-8-20-8-28 0l-136 136c-8 8-8 20 0 28l14 14c8 8 20 8 28 0l136-136c8-8 8-20 0-28z m80 80l-14-14c-8-8-20-8-28 0l-136 136c-8 8-8 20 0 28l14 14c8 8 20 8 28 0l136-136c8-8 8-20 0-28z m56 170c-28 0-50 22-50 50s22 50 50 50 50-22 50-50-22-50-50-50z" horiz-adv-x="1000" />

<glyph glyph-name="recent" unicode="&#xe859;" d="M281 370c-1-7-1-13-1-20h-60c0 7 0 13 1 20h60z m234 120h-30c-8 0-15-7-15-15v-131c0-4 2-8 4-11l84-84c6-6 15-6 21 0l21 21c6 6 6 15 0 21l-70 71v113c0 8-7 15-15 15z m-15 140c-148 0-269-115-279-260 0-3-1-7-1-10h-45c-13 0-20-15-12-24l75-91c6-7 17-7 23 0l75 91c8 10 1 24-12 24h-44v10c10 112 105 200 219 200 130 0 233-113 219-245-10-95-100-185-196-194-71-7-138 19-185 70-6 7-14 11-22 1l-24-29c-5-6-1-10 4-15 54-57 128-89 208-88 144 2 265 116 275 260 13 163-117 300-278 300z" horiz-adv-x="1000" />

<glyph glyph-name="record" unicode="&#xe85a;" d="M390 530h220c11 0 20 9 20 20v40c0 33-27 60-60 60h-140c-33 0-60-27-60-60v-40c0-11 9-20 20-20z m330 70h-20c-6 0-10-4-10-10v-40c0-44-36-80-80-80h-220c-44 0-80 36-80 80v40c0 6-4 10-10 10h-20c-33 0-60-27-60-60v-430c0-33 27-60 60-60h440c33 0 60 27 60 60v430c0 33-27 60-60 60z m-330-430c0-11-9-20-20-20h-20c-11 0-20 9-20 20v20c0 11 9 20 20 20h20c11 0 20-9 20-20v-20z m0 100c0-11-9-20-20-20h-20c-11 0-20 9-20 20v20c0 11 9 20 20 20h20c11 0 20-9 20-20v-20z m0 100c0-11-9-20-20-20h-20c-11 0-20 9-20 20v20c0 11 9 20 20 20h20c11 0 20-9 20-20v-20z m280-200c0-11-9-20-20-20h-200c-11 0-20 9-20 20v20c0 11 9 20 20 20h200c11 0 20-9 20-20v-20z m0 100c0-11-9-20-20-20h-200c-11 0-20 9-20 20v20c0 11 9 20 20 20h200c11 0 20-9 20-20v-20z m0 100c0-11-9-20-20-20h-200c-11 0-20 9-20 20v20c0 11 9 20 20 20h200c11 0 20-9 20-20v-20z" horiz-adv-x="1000" />

<glyph glyph-name="related_list" unicode="&#xe85b;" d="M740 650h-320c-33 0-60-27-60-60v-10c0-5 4-10 10-10h290c33 0 60-27 60-60v-310c0-5 4-10 10-10 38 0 70 31 70 70v330c0 33-27 60-60 60z m-460-140c-33 0-60-27-60-60v-340c0-33 27-60 60-60h320c33 0 60 27 60 60v340c0 33-27 60-60 60h-320z m80-140c0-11-9-20-20-20h-20c-11 0-20 9-20 20v20c0 11 9 20 20 20h20c11 0 20-9 20-20v-20z m220 0c0-11-9-20-20-20h-140c-11 0-20 9-20 20v20c0 11 9 20 20 20h140c11 0 20-9 20-20v-20z m-220-100c0-11-9-20-20-20h-20c-11 0-20 9-20 20v20c0 11 9 20 20 20h20c11 0 20-9 20-20v-20z m220 0c0-11-9-20-20-20h-140c-11 0-20 9-20 20v20c0 11 9 20 20 20h140c11 0 20-9 20-20v-20z m-220-100c0-11-9-20-20-20h-20c-11 0-20 9-20 20v20c0 11 9 20 20 20h20c11 0 20-9 20-20v-20z m220 0c0-11-9-20-20-20h-140c-11 0-20 9-20 20v20c0 11 9 20 20 20h140c11 0 20-9 20-20v-20z" horiz-adv-x="1000" />

<glyph glyph-name="relationship" unicode="&#xe85c;" d="M713 150h-38v75h38c7 0 12 5 12 12v325c0 8-5 13-12 13h-325c-8 0-13-5-13-13v-37h-75v37c0 49 39 88 88 88h325c48 0 87-39 87-88v-325c0-48-39-87-87-87z m-138 325h-325c-27 0-50-23-50-50v-325c0-28 23-50 50-50h325c28 0 50 22 50 50v325c0 27-22 50-50 50z" horiz-adv-x="1000" />

<glyph glyph-name="report" unicode="&#xe85d;" d="M390 530h220c11 0 20 9 20 20v40c0 33-27 60-60 60h-140c-33 0-60-27-60-60v-40c0-11 9-20 20-20z m330 70h-20c-6 0-10-4-10-10v-40c0-44-36-80-80-80h-220c-44 0-80 36-80 80v40c0 6-4 10-10 10h-20c-33 0-60-27-60-60v-430c0-33 27-60 60-60h440c33 0 60 27 60 60v430c0 33-27 60-60 60z m-290-410c0-11-9-20-20-20h-20c-11 0-20 9-20 20v100c0 11 9 20 20 20h20c11 0 20-9 20-20v-100z m100 0c0-11-9-20-20-20h-20c-11 0-20 9-20 20v190c0 11 9 20 20 20h20c11 0 20-9 20-20v-190z m100 0c0-11-9-20-20-20h-20c-11 0-20 9-20 20v150c0 11 9 20 20 20h20c11 0 20-9 20-20v-150z" horiz-adv-x="1000" />

<glyph glyph-name="resource_absence" unicode="&#xe85e;" d="M499 650a254 254 0 1 1 252-255c0 138-112 255-252 255z m166-380l-47-47-123 122-116-116-47 47 116 117-117 117 47 47 117-117 123 123 48-47-123-123z m-405-62h-13a48 48 0 0 1-47-48v-63a47 47 0 0 1 47-47h506a48 48 0 0 1 47 47v63a47 47 0 0 1-47 48h-16a301 301 0 0 0-477 0z" horiz-adv-x="1000" />

<glyph glyph-name="resource_capacity" unicode="&#xe85f;" d="M499 650a254 254 0 1 1 252-255c0 138-112 255-252 255z m177-264h-183v194s69 4 131-61 52-133 52-133z m-416-178h-13a48 48 0 0 1-47-48v-63a47 47 0 0 1 47-47h506a48 48 0 0 1 47 47v63a47 47 0 0 1-47 48h-16a301 301 0 0 0-477 0z" horiz-adv-x="1000" />

<glyph glyph-name="resource_preference" unicode="&#xe860;" d="M499 650a254 254 0 1 1 252-255c0 138-112 255-252 255z m-107-359a28 28 0 0 0-30-26h-19a11 11 0 0 0-11 10v147a11 11 0 0 0 11 10h38a11 11 0 0 0 11-10z m272 29c0-55-52-61-109-61-53 0-71 18-122 19a10 10 0 0 0-10 10v127a11 11 0 0 0 11 10 67 67 0 0 1 64 67v38a11 11 0 0 0 11 10h19a28 28 0 0 0 30-25v-65a28 28 0 0 1 30-25h45a28 28 0 0 0 30-26z m-404-112h-13a48 48 0 0 1-47-48v-63a47 47 0 0 1 47-47h506a48 48 0 0 1 47 47v63a47 47 0 0 1-47 48h-16a301 301 0 0 0-477 0z" horiz-adv-x="1000" />

<glyph glyph-name="resource_skill" unicode="&#xe861;" d="M439 396a60 60 0 1 1 120 0 60 60 0 1 1-120 0z m60 254a254 254 0 1 1 252-255c0 138-112 255-252 255z m166-337l-12-19a27 27 0 0 0-21-12 28 28 0 0 0-9 2l-32 13a140 140 0 0 0-46-27l-6-36a25 25 0 0 0-24-20h-24a25 25 0 0 0-24 20l-6 36a120 120 0 0 0-45 25l-34-13a28 28 0 0 0-8-1 25 25 0 0 0-22 12l-11 20a24 24 0 0 0 6 31l28 23a127 127 0 0 0-3 26 118 118 0 0 0 3 25l-28 24a24 24 0 0 0-6 31l11 20a24 24 0 0 0 22 12 28 28 0 0 0 8-2l34-12a138 138 0 0 0 45 26l6 34a23 23 0 0 0 24 19h24a23 23 0 0 0 24-18l6-35a136 136 0 0 0 45-25l33 12a28 28 0 0 0 9 2 25 25 0 0 0 21-12l12-20a25 25 0 0 0-6-31l-28-24a120 120 0 0 0 3-26 118 118 0 0 0-3-25l28-23a25 25 0 0 0 6-32z m-405-105h-13a48 48 0 0 1-47-48v-63a47 47 0 0 1 47-47h506a48 48 0 0 1 47 47v63a47 47 0 0 1-47 48h-16a301 301 0 0 0-477 0z" horiz-adv-x="1000" />

<glyph glyph-name="reward" unicode="&#xe862;" d="M467 216l-117-166-30 80h-80l102 139c20-12 41-14 56-17 5-1 11-2 14-2 2-1 7-5 10-8 12-8 27-20 45-26z m191 53c-20-12-41-14-56-17-5-1-12-2-15-2-2-1-7-5-10-8-11-8-25-20-44-26l117-166 30 80h80l-102 139z m-158 261c-39 0-70-31-70-70s31-70 70-70 70 31 70 70-31 70-70 70z m190-70c0-24-26-43-35-64-9-22-4-54-21-70-16-16-48-12-70-21-21-9-40-35-64-35s-43 26-64 35c-22 9-54 4-70 21-16 16-12 48-21 70-9 21-35 40-35 64 0 24 26 43 35 64 9 22 4 54 21 70 16 16 48 12 70 21 21 9 40 35 64 35s43-26 64-35c22-9 54-4 70-21 16-16 12-48 21-70 9-21 35-40 35-64z m-60 0c0 72-58 130-130 130s-130-58-130-130 58-130 130-130 130 58 130 130z" horiz-adv-x="1000" />

<glyph glyph-name="rtc_presence" unicode="&#xe863;" d="M615 652c-111 0-202-86-202-192a188 188 0 0 1 26-95 16 16 0 0 0 2-11l-20-62a14 14 0 0 1 18-17l59 21a15 15 0 0 0 11-1 208 208 0 0 1 106-29c112 0 203 87 203 193s-91 193-202 193z m-157-564v-13a28 28 0 0 0-28-28h-220a28 28 0 0 0-28 28v13c0 33 40 54 76 70a14 14 0 0 1 4 2 8 8 0 0 0 9 0 90 90 0 0 1 50-15 94 94 0 0 1 50 14 8 8 0 0 0 8 0 14 14 0 0 0 4-2c36-15 75-35 75-69z" horiz-adv-x="1000" />

<glyph glyph-name="sales_path" unicode="&#xe864;" d="M152 168l142 172c4 7 4 15 0 21l-142 170c-1 2-2 4-2 6 0 6 5 10 10 10h207c6 0 11-2 14-7l149-180c4-6 4-14 0-21l-148-180c-3-4-9-7-14-7h-207c-6 0-10 4-10 10-1 2 0 5 1 6z m316 0l141 172c4 7 4 15 0 21l-142 170c-1 2-2 4-2 6 0 6 5 10 10 10h207c6 0 11-2 14-7l149-180c4-6 4-14 0-21l-148-180c-3-4-9-7-14-7h-207c-6 0-10 4-10 10 0 2 1 5 2 6z" horiz-adv-x="1000" />

<glyph glyph-name="scan_card" unicode="&#xe865;" d="M740 550h-480c-33 0-60-27-60-60v-280c0-33 27-60 60-60h480c33 0 60 27 60 60v280c0 33-27 60-60 60z m-490-230c-17 0-30 13-30 30s13 30 30 30 30-13 30-30-13-30-30-30z m470-90c0-11-9-20-20-20h-380c-11 0-20 9-20 20v240c0 11 9 20 20 20h380c11 0 20-9 20-20v-240z m-80 200h-260c-11 0-20-9-20-20v-120c0-11 9-20 20-20h260c11 0 20 9 20 20v120c0 11-9 20-20 20z" horiz-adv-x="1000" />

<glyph glyph-name="service_appointment" unicode="&#xe866;" d="M718 650h-435a81 81 0 0 1-83-78v-444a81 81 0 0 1 82-78h59a36 36 0 0 0-4 17v223a14 14 0 0 0 13 14h375a14 14 0 0 0 14-14v-223a36 36 0 0 0-3-15 80 80 0 0 1 64 76v444c1 42-36 78-82 78z m-410-161a29 29 0 0 0-28 27v28a29 29 0 0 0 28 27h140a29 29 0 0 0 28-27v-28a29 29 0 0 0-28-27z m431-141a14 14 0 0 0-14-14h-375a14 14 0 0 0-14 14v22a37 37 0 0 0 37 36h46v19a27 27 0 0 0 54 0v-18h128v18a27 27 0 0 0 55 0v-18h46a37 37 0 0 0 37-37z" horiz-adv-x="1000" />

<glyph glyph-name="service_contract" unicode="&#xe867;" d="M691 561l-132 132c-3 3-6 4-10 4-8 0-14-6-14-14v-106c0-22 18-40 40-40h106c8 0 14 6 14 14 0 4-1 7-4 10z m4-104c0 11-9 20-20 20h-140c-33 0-60 27-60 60v140c0 11-9 20-20 20h-200c-33 0-60-27-60-60v-480c0-33 27-60 60-60h203s20 11 19 28-7 90 43 148 132 62 144 62c12 0 32 1 31 18s0 104 0 104z m-430 114l49 7c1 0 3 1 3 2l22 45c2 3 6 3 8 0l22-45c1-1 2-2 3-2l49-7c3-1 5-5 2-7l-36-35c-1-1-1-2-1-4l8-49c1-3-3-6-6-4l-44 23c-1 1-3 1-4 0l-44-23c-3-2-7 1-6 4l8 49c0 1 0 3-1 4l-36 35c-1 2 1 6 4 7z m180-334c0-11-9-20-20-20h-130c-11 0-20 9-20 20v20c0 11 9 20 20 20h130c11 0 20-9 20-20v-20z m110 120c0-11-9-20-20-20h-240c-11 0-20 9-20 20v20c0 11 9 20 20 20h240c11 0 20-9 20-20v-20z m108-69c-79 0-143-64-143-143s64-143 143-143 143 64 143 143-65 143-143 143z m25-156c-4 0-8 1-12 2l-55-54c-4-4-8-5-12-5-5 0-8 1-12 5-6 6-6 17 0 24l55 55c-1 3-2 7-2 11-2 25 18 48 43 48 4 0 8-1 12-2 2 0 2-2 1-4l-24-25c-2-1-2-5 0-6l17-17c2-2 5-2 7 0l24 24c1 1 4 1 4-1 1-4 2-8 2-12-1-25-22-45-48-43z" horiz-adv-x="1000" />

<glyph glyph-name="service_report" unicode="&#xe868;" d="M718 600h-20a9 9 0 0 1-10-10v-40a80 80 0 0 0-79-80h-218a80 80 0 0 0-79 80v40a9 9 0 0 1-10 10h-20a60 60 0 0 1-60-60v-430a60 60 0 0 1 60-60h436a60 60 0 0 1 60 60v430a60 60 0 0 1-60 60z m-287-410a20 20 0 0 0-20-20h-20a20 20 0 0 0-20 20v100a20 20 0 0 0 20 20h20a20 20 0 0 0 20-20z m99 0a20 20 0 0 0-20-20h-20a20 20 0 0 0-20 20v190a20 20 0 0 0 20 20h20a20 20 0 0 0 20-20z m99 0a20 20 0 0 0-20-20h-20a20 20 0 0 0-20 20v150a20 20 0 0 0 20 20h20a20 20 0 0 0 20-20z m-238 340h218a20 20 0 0 1 20 20v40a60 60 0 0 1-59 60h-139a60 60 0 0 1-60-60v-40a20 20 0 0 1 20-20z" horiz-adv-x="1000" />

<glyph glyph-name="service_resource" unicode="&#xe869;" d="M718 650h-435a81 81 0 0 1-83-78v-444a81 81 0 0 1 82-78h110c11 45 64 72 121 95 42 18 49 33 49 51s-13 35-27 48a113 113 0 0 0-39 90c0 67 44 126 120 126s120-58 120-126a121 121 0 0 0-38-90c-14-14-27-30-27-48s5-33 49-51a415 415 0 0 0 77-39 73 73 0 0 1 3 22v444c1 42-36 78-82 78z m-242-134a29 29 0 0 0-27-27h-141a29 29 0 0 0-28 27v28a29 29 0 0 0 28 27h140a29 29 0 0 0 28-27z" horiz-adv-x="1000" />

<glyph glyph-name="service_territory_member" unicode="&#xe86a;" d="M427 427a71 71 0 0 0 73 71 71 71 0 1 0-73-71z m72 223a254 254 0 1 1 252-255c0 138-112 255-252 255z m10-439a14 14 0 0 0-19 0c-31 24-135 117-135 216a145 145 0 0 0 290 0c0-100-104-191-136-216z m-249-3h-13a48 48 0 0 1-47-48v-63a47 47 0 0 1 47-47h506a48 48 0 0 1 47 47v63a47 47 0 0 1-47 48h-16a301 301 0 0 0-477 0z" horiz-adv-x="1000" />

<glyph glyph-name="service_territory" unicode="&#xe86b;" d="M566 229a74 74 0 0 0-74 72 73 73 0 0 0 74 72 72 72 0 1 0 0-144z m152 421h-435a81 81 0 0 1-83-78v-444a81 81 0 0 1 82-78h244c-51 45-136 138-136 235a173 173 0 0 0 347 0c0-98-86-190-137-235h118a81 81 0 0 1 82 78v444c1 42-36 78-82 78z m-242-134a29 29 0 0 0-27-27h-141a29 29 0 0 0-28 27v28a29 29 0 0 0 28 27h140a29 29 0 0 0 28-27z" horiz-adv-x="1000" />

<glyph glyph-name="skill_entity" unicode="&#xe86c;" d="M773 293l-73 108v9c0 132-108 240-240 240-19 0-38-2-57-7-106-24-183-122-183-233 0-49 12-93 36-127 42-60 70-108 53-173-4-15-1-30 9-42 9-12 22-18 37-18h197c23 0 43 16 47 38 1 4 2 8 2 12 2 12 12 20 24 20h14c22 0 41 13 47 34 6 23 14 56 15 96h52c9 0 18 8 22 16 4 8 3 21-2 27z m-159 137c-8-13-24-20-47-20-123 0-132-90-132-133 0-20-16-37-36-37h-3c-17 0-31 12-35 29-4 18-16 28-28 37-8 6-16 12-20 21-11 23-22 50-22 84 0 78 54 146 127 163 14 3 27 5 41 5 68 0 129-41 155-103 1-3 12-27 0-46z" horiz-adv-x="1000" />

<glyph glyph-name="skill_requirement" unicode="&#xe86d;" d="M501 271a68 68 0 1 0 66 68 67 67 0 0 0-66-68z m307 113h-56v199a68 68 0 0 1-67 67h-370a68 68 0 0 1-67-67v-199h-56a34 34 0 0 1 0-68h56v-199a68 68 0 0 1 67-67h370a68 68 0 0 1 67 67v199h56a34 34 0 0 1 0 68z m-141-128l-12-20a27 27 0 0 0-21-12 28 28 0 0 0-9 2l-32 13a140 140 0 0 0-47-28l-6-37a25 25 0 0 0-24-21h-24a25 25 0 0 0-25 21l-6 37a121 121 0 0 0-45 26l-34-13a28 28 0 0 0-8-2 25 25 0 0 0-22 13l-12 21a25 25 0 0 0 6 31l28 24a133 133 0 0 0-3 27 124 124 0 0 0 3 26l-28 24a25 25 0 0 0-6 32l12 21a24 24 0 0 0 21 13 28 28 0 0 0 9-2l34-13a139 139 0 0 0 45 27l6 34a23 23 0 0 0 25 20h24a24 24 0 0 0 24-19l6-35a136 136 0 0 0 45-26l34 13a28 28 0 0 0 9 2 25 25 0 0 0 21-13l12-21a26 26 0 0 0-6-32l-28-24a126 126 0 0 0 3-27 124 124 0 0 0-3-26l28-23a26 26 0 0 0 6-33z" horiz-adv-x="1000" />

<glyph glyph-name="skill" unicode="&#xe86e;" d="M438 382a53 53 0 1 0 55 54 54 54 0 0 0-55-54z m335-89l-72 108v9a240 240 0 0 1-239 240 220 220 0 0 1-57-7 239 239 0 0 1-182-233 219 219 0 0 1 36-127c42-60 70-108 53-173a46 46 0 0 1 9-42 44 44 0 0 1 36-18h196a47 47 0 0 1 47 38 50 50 0 0 1 2 12 24 24 0 0 0 24 20h14a47 47 0 0 1 47 34 413 413 0 0 1 15 96h51a28 28 0 0 1 22 16 29 29 0 0 1-2 27z m-198 84l-10-16a22 22 0 0 0-18-9 24 24 0 0 0-7 1l-26 10a116 116 0 0 0-39-22l-5-29a20 20 0 0 0-20-16h-20a20 20 0 0 0-20 16l-4 29a100 100 0 0 0-37 20l-28-10a24 24 0 0 0-8-1 21 21 0 0 0-17 10l-10 16a19 19 0 0 0 5 25l23 19a101 101 0 0 0-3 21 94 94 0 0 0 3 20l-23 20a19 19 0 0 0-5 25l10 17a20 20 0 0 0 18 10 24 24 0 0 0 7-2l28-10a115 115 0 0 0 37 21l4 28a19 19 0 0 0 20 16h20a19 19 0 0 0 20-15l5-29a113 113 0 0 0 37-20l28 10a24 24 0 0 0 7 2 21 21 0 0 0 18-10l10-16a20 20 0 0 0-5-26l-23-19a96 96 0 0 0 2-21 94 94 0 0 0-2-20l23-19a20 20 0 0 0 5-26z" horiz-adv-x="1000" />

<glyph glyph-name="social" unicode="&#xe86f;" d="M700 280c-48 0-89-34-98-80h-132c-6 0-10-5-10-11v-9c0-10-1-19-3-28-1-6 4-12 10-12h141c15-35 51-60 92-60 55 0 100 45 100 100s-45 100-100 100z m-267 115c-12 5-23 12-33 20-5 4-12 2-15-3l-71-133c-4 1-9 1-14 1-55 0-100-45-100-100s45-100 100-100 100 45 100 100c0 29-12 54-31 73l69 128c2 5 0 11-5 14z m67 45c10 0 19 1 28 4l69-127c3-5 9-7 14-4 11 7 22 13 34 17 6 2 8 9 5 14l-72 134c13 17 22 39 22 62 0 55-45 100-100 100s-100-45-100-100 45-100 100-100z" horiz-adv-x="1000" />

<glyph glyph-name="solution" unicode="&#xe870;" d="M476 649c-98-11-177-88-185-184-6-70 25-134 75-175 15-12 24-30 24-49v-1c0-28 23-51 52-51h116c29 0 52 23 52 51v1c0 19 9 37 24 49 46 38 76 94 76 157 0 120-107 215-234 202z m114-519h-180c-11 0-20-9-20-20 0-33 27-60 60-60h100c33 0 60 27 60 60 0 11-9 20-20 20z" horiz-adv-x="1000" />

<glyph glyph-name="sossession" unicode="&#xe871;" d="M496 670c-177-2-318-148-316-324 2-177 148-318 324-316 177 2 318 148 316 324-2 177-148 318-324 316z m0-42c48 1 93-11 132-31l-43-72c-26 13-55 20-85 20s-60-7-85-20l-43 72c37 19 79 31 124 31z m-171-363l-72-43c-19 37-31 80-31 125-1 48 11 93 31 132l72-43c-13-26-20-55-20-85s7-61 20-86z m179-193c-48-1-93 11-132 31l43 72c26-13 55-20 85-20s60 7 85 20l43-72c-37-19-79-31-124-31z m-4 125c-85 0-153 69-153 153 0 85 69 153 153 153 85 0 153-69 153-153 0-85-68-153-153-153z m175 68c13 26 20 55 20 85s-7 60-20 85l72 43c19-37 31-80 31-125 1-48-11-93-31-132l-72 44z" horiz-adv-x="1000" />

<glyph glyph-name="task" unicode="&#xe872;" d="M466 613l-21 21c-6 6-15 6-21 0l-132-132-53 53c-6 6-15 6-21 0l-21-21c-6-6-6-15 0-21l74-74c6-6 14-9 21-9 8 0 15 3 21 9l153 153c5 5 5 15 0 21z m304-143h-260c-11 0-20 9-20 20v40c0 11 9 20 20 20h260c11 0 20-9 20-20v-40c0-11-9-20-20-20z m0-180h-320c-11 0-20 9-20 20v40c0 11 9 20 20 20h320c11 0 20-9 20-20v-40c0-11-9-20-20-20z m-440 0h-40c-11 0-20 9-20 20v40c0 11 9 20 20 20h40c11 0 20-9 20-20v-40c0-11-9-20-20-20z m0-180h-40c-11 0-20 9-20 20v40c0 11 9 20 20 20h40c11 0 20-9 20-20v-40c0-11-9-20-20-20z m440 0h-320c-11 0-20 9-20 20v40c0 11 9 20 20 20h320c11 0 20-9 20-20v-40c0-11-9-20-20-20z" horiz-adv-x="1000" />

<glyph glyph-name="task2" unicode="&#xe873;" d="M426 140c-12 0-24 5-33 14l-187 187c-8 8-8 20 0 28l37 37c8 8 20 8 28 0l155-154 303 303c8 8 20 8 28 0l37-37c8-8 8-20 0-28l-336-336c-9-9-20-14-32-14z" horiz-adv-x="1000" />

<glyph glyph-name="team_member" unicode="&#xe874;" d="M570 410h-120c-33 0-60-27-60-60v-90c0-11 5-21 12-28 7-7 17-12 28-12v-90c0-33 27-60 60-60h40c33 0 60 27 60 60v90c11 0 21 4 28 12 7 7 12 17 12 28v90c0 33-27 60-60 60z m-204-227c-2 2-5 4-7 6-19 20-30 45-30 71v90c0 32 13 62 34 83 6 6 1 17-7 17h-96c-33 0-60-27-60-60v-90c0-11 5-21 12-28 7-7 17-12 28-12v-90c0-33 27-60 60-60h40c9 0 17 2 24 5 4 2 6 5 6 9v51c0 3-1 6-4 8z m394 267h-96c-9 0-13-10-7-17 21-22 34-51 34-83v-90c0-26-10-51-30-71-2-2-4-4-7-6-2-2-4-5-4-8v-51c0-4 2-8 6-9 7-3 15-5 24-5h40c33 0 60 27 60 60v90c11 0 21 4 28 12 7 7 12 17 12 28v90c0 33-27 60-60 60z" horiz-adv-x="1000" />

<glyph glyph-name="thanks_loading" unicode="&#xe875;" d="M740 500h-87c25 39 23 91-8 123-17 17-40 27-64 27-26 0-52-12-71-32-4-4-7-8-10-13-3 5-6 9-10 13-19 21-45 32-71 32-24 0-46-10-63-27-31-32-33-84-8-123h-88c-33 0-60-27-60-60v-40c0-11 9-20 20-20h560c11 0 20 9 20 20v40c0 33-27 60-60 60z m-270 0c-21 0-51 8-68 26-15 16-17 42-3 55 7 7 14 8 20 8 10 0 20-5 27-13 17-19 24-51 24-71v-5z m128 26c-17-18-47-26-68-26v6c0 20 7 52 24 71 8 8 18 13 27 13 5 0 13-1 20-8 13-14 12-39-3-56z m142-206h-210v-270h172c32 0 58 26 58 58v192c0 11-9 20-20 20z m-500-20v-190c0-33 27-60 60-60h170v270h-210c-11 0-20-9-20-20z" horiz-adv-x="1000" />

<glyph glyph-name="thanks" unicode="&#xe876;" d="M740 500h-87c25 39 23 91-8 123-17 17-40 27-64 27-26 0-52-12-71-32-4-4-7-8-10-13-3 5-6 9-10 13-19 21-45 32-71 32-24 0-46-10-63-27-31-32-33-84-8-123h-88c-33 0-60-27-60-60v-40c0-11 9-20 20-20h560c11 0 20 9 20 20v40c0 33-27 60-60 60z m-270 0c-21 0-51 8-68 26-15 16-17 42-3 55 7 7 14 8 20 8 10 0 20-5 27-13 17-19 24-51 24-71v-5z m128 26c-17-18-47-26-68-26v6c0 20 7 52 24 71 8 8 18 13 27 13 5 0 13-1 20-8 13-14 12-39-3-56z m142-206h-210v-270h172c32 0 58 26 58 58v192c0 11-9 20-20 20z m-500-20v-190c0-33 27-60 60-60h170v270h-210c-11 0-20-9-20-20z" horiz-adv-x="1000" />

<glyph glyph-name="timeslot" unicode="&#xe877;" d="M710 650h-418a79 79 0 0 1-80-78v-444a79 79 0 0 1 79-78h419a79 79 0 0 1 78 78v444a77 77 0 0 1-78 78z m-392-130a27 27 0 0 0 26 26h133a27 27 0 0 0 26-26v-26a27 27 0 0 0-26-26h-133a27 27 0 0 0-26 26z m362-340a27 27 0 0 0-26-26h-132a27 27 0 0 0-26 26v26a27 27 0 0 0 26 26h133a26 26 0 0 0 25-26z m5 124a28 28 0 0 0-27-26h-314a27 27 0 0 0-26 26v91a27 27 0 0 0 26 26h315a27 27 0 0 0 26-26z" horiz-adv-x="1000" />

<glyph glyph-name="today" unicode="&#xe878;" d="M500 650c-165 0-300-135-300-300s135-300 300-300 300 135 300 300-135 300-300 300z m0-540c-132 0-240 108-240 240s108 240 240 240 240-108 240-240-108-240-240-240z m30 252v128c0 11-9 20-20 20h-20c-11 0-20-9-20-20v-140c0-8 3-16 9-21l96-96c8-8 20-8 28 0l14 14c8 8 8 20 0 28l-87 87z" horiz-adv-x="1000" />

<glyph glyph-name="topic" unicode="&#xe879;" d="M614 478c2-7 7-12 14-14l22-6c4-1 9 1 11 5l47 81c11 19 5 26-15 15l-81-47c-4-2-6-7-5-11l7-23z m-275-15c2-4 7-6 11-5l22 6c7 2 12 7 14 14l6 22c1 4-1 9-5 11l-81 47c-19 11-26 5-15-15l48-80z m322-226c-2 4-7 6-11 5l-22-6c-7-2-12-7-14-14l-6-22c-1-4 1-9 5-11l81-47c19-11 26-5 15 15l-48 80z m-275-15c-2 7-7 12-14 14l-22 6c-4 1-9-1-11-5l-47-81c-11-19-5-26 15-15l81 47c4 2 6 7 5 11l-7 23z m398 138l-205 55c-7 2-12 7-14 14l-55 205c-6 21-15 21-21 0l-55-205c-2-7-7-12-14-14l-204-55c-21-6-21-15 0-21l205-55c7-2 12-7 14-14l55-204c6-21 15-21 21 0l55 205c2 7 7 12 14 14l204 55c21 5 21 15 0 20z m-284-60c-28 0-50 22-50 50s22 50 50 50 50-22 50-50-22-50-50-50z" horiz-adv-x="1000" />

<glyph glyph-name="unmatched" unicode="&#xe87a;" d="M657 382c-1 5-5 8-10 8h-294c-5 0-9-3-10-8-2-10-3-21-3-32s1-22 3-32c1-5 5-8 10-8h294c5 0 9 3 10 8 2 10 3 21 3 32s-1 22-3 32z m-157 268c-165 0-300-135-300-300s135-300 300-300 300 135 300 300-135 300-300 300z m0-520c-121 0-220 99-220 220s99 220 220 220 220-99 220-220-99-220-220-220z" horiz-adv-x="1000" />

<glyph glyph-name="user" unicode="&#xe87b;" d="M800 138v-28c0-33-27-60-60-60h-480c-33 0-60 27-60 60v28c0 73 85 117 165 152 3 1 5 2 8 4 6 3 13 3 19-1 32-21 69-33 108-33 39 0 76 12 108 32 6 4 13 4 19 1 3-1 5-2 8-4 80-34 165-78 165-151z" horiz-adv-x="1000" />

<glyph glyph-name="work_order_item" unicode="&#xe87c;" d="M390 530h220c11 0 20 9 20 20v40c0 33-27 60-60 60h-140c-33 0-60-27-60-60v-40c0-11 9-20 20-20z m330 70h-20c-6 0-10-4-10-10v-40c0-44-36-80-80-80h-220c-44 0-80 36-80 80v40c0 6-4 10-10 10h-20c-33 0-60-27-60-60v-430c0-33 27-60 60-60h440c33 0 60 27 60 60v430c0 33-27 60-60 60z m-52-240l-192-192c-5-5-11-8-18-8s-14 3-19 8l-107 107c-5 5-5 11 0 16l21 21c5 5 11 5 16 0l88-88 173 173c5 5 11 5 16 0l21-21c5-5 5-12 1-16z" horiz-adv-x="1000" />

<glyph glyph-name="work_order" unicode="&#xe87d;" d="M652 328c-36-14-50-48-52-53-3-7-8-8-8-8h-180c-3 0-6 4-8 7-15 35-50 61-90 61-37 0-69-20-86-50-2-4-8-5-12-2-10 9-16 22-16 36 0 0-6 116 33 176 7 10 12 14 21 14h380c4 0 8 0 12-3 0 0 42-64 48-70 5-5 10-9 23-12 8-2 81-28 81-28 4-2 3-7 3-11v-65c0-14-4-27-14-36-4-3-9-2-11 2-17 30-48 50-85 50-15 0-27-3-39-8" horiz-adv-x="1000" />

<glyph glyph-name="work_type" unicode="&#xe87e;" d="M759 557l-90 89a11 11 0 0 1-9 4 14 14 0 0 1-14-14v-64a39 39 0 0 1 39-38h64a14 14 0 0 1 13 13 17 17 0 0 1-3 10z m-463-333v310a58 58 0 0 1-58-58v-367a59 59 0 0 1 58-59h292a58 58 0 0 1 58 57h-233c-64 0-117 0-117 117z m447 252h-98a58 58 0 0 0-59 58v97a18 18 0 0 1-18 19h-155a58 58 0 0 1-59-58v-367a58 58 0 0 1 59-58h291a58 58 0 0 1 59 58v231a20 20 0 0 1-20 20z m-244-248a25 25 0 0 0-25-25h-50a25 25 0 0 0-24 25v50a25 25 0 0 0 25 25h50a25 25 0 0 0 25-25z m0 137a25 25 0 0 0-25-25h-50a25 25 0 0 0-24 25v50a25 25 0 0 0 25 25h50a25 25 0 0 0 25-25z m137-137a25 25 0 0 0-25-25h-50a25 25 0 0 0-25 25v50a25 25 0 0 0 25 25h50a25 25 0 0 0 25-25z m0 137a25 25 0 0 0-25-25h-50a25 25 0 0 0-25 25v50a25 25 0 0 0 25 25h50a25 25 0 0 0 25-25z" horiz-adv-x="1000" />
</font>
</defs>
</svg>
